<?xml version="1.0" encoding="UTF-8" standalone="no"?>
<!-- Created with Inkscape (http://www.inkscape.org/) -->

<svg
   xmlns:dc="http://purl.org/dc/elements/1.1/"
   xmlns:cc="http://creativecommons.org/ns#"
   xmlns:rdf="http://www.w3.org/1999/02/22-rdf-syntax-ns#"
   xmlns:svg="http://www.w3.org/2000/svg"
   xmlns="http://www.w3.org/2000/svg"
   xmlns:sodipodi="http://sodipodi.sourceforge.net/DTD/sodipodi-0.dtd"
   xmlns:inkscape="http://www.inkscape.org/namespaces/inkscape"
   width="13.22917mm"
   height="11.11239mm"
   viewBox="0 0 13.22917 11.112389"
   version="1.1"
   id="svg8"
   inkscape:version="0.92.3 (2405546, 2018-03-11)"
   sodipodi:docname="barang.svg">
  <defs
     id="defs2" />
  <sodipodi:namedview
     id="base"
     pagecolor="#ffffff"
     bordercolor="#666666"
     borderopacity="1.0"
     inkscape:pageopacity="0.0"
     inkscape:pageshadow="2"
     inkscape:zoom="3.959798"
     inkscape:cx="17.449747"
     inkscape:cy="12.660093"
     inkscape:document-units="mm"
     inkscape:current-layer="layer1"
     showgrid="false"
     inkscape:window-width="1366"
     inkscape:window-height="723"
     inkscape:window-x="0"
     inkscape:window-y="22"
     inkscape:window-maximized="1" />
  <metadata
     id="metadata5">
    <rdf:RDF>
      <cc:Work
         rdf:about="">
        <dc:format>image/svg+xml</dc:format>
        <dc:type
           rdf:resource="http://purl.org/dc/dcmitype/StillImage" />
        <dc:title></dc:title>
      </cc:Work>
    </rdf:RDF>
  </metadata>
  <g
     inkscape:label="Layer 1"
     inkscape:groupmode="layer"
     id="layer1"
     transform="translate(83.055769,-421.87927)">
    <path
       id="path1527"
       d="m -143.27895,233.28067 c -0.1382,-0.0214 -0.26721,0.0756 -0.28826,0.2166 l -0.001,0.009 c -0.0211,0.1411 0.0739,0.27281 0.21215,0.29431 0.0129,0.002 0.0257,0.003 0.0384,0.003 0.12297,0 0.23083,-0.0917 0.24991,-0.21953 l 10e-4,-0.009 c 0.0211,-0.1411 -0.0739,-0.27282 -0.21215,-0.29432 z m 0,0"
       inkscape:connector-curvature="0"
       style="stroke-width:0.02557143" />
    <path
       id="path1529"
       d="m -151.7681,228.79643 c 0.0597,0 0.11962,-0.0215 0.16786,-0.0652 l 0.005,-0.005 c 0.10449,-0.0947 0.11408,-0.25797 0.0213,-0.36476 -0.0928,-0.10668 -0.25277,-0.11647 -0.35726,-0.0217 l -0.005,0.005 c -0.10459,0.0947 -0.11418,0.25797 -0.0214,0.36476 0.05,0.0575 0.11952,0.0869 0.18941,0.0869 z m 0,0"
       inkscape:connector-curvature="0"
       style="stroke-width:0.02557143" />
    <path
       inkscape:connector-curvature="0"
       d="m -99.542105,523.0861 h -1.060275 c -0.14262,0 -0.25838,0.10815 -0.25838,0.24158 0,0.13343 0.11577,0.24158 0.25838,0.24158 h 1.060275 c 0.142716,0 0.258382,-0.10815 0.258382,-0.24158 0,-0.13343 -0.115666,-0.24158 -0.258382,-0.24158 z m 0,0"
       id="path1461"
       style="stroke-width:0.02498379" />
    <path
       inkscape:connector-curvature="0"
       d="m -101.34472,523.0862 h -0.006 c -0.14272,0 -0.25839,0.10814 -0.25839,0.24157 0,0.13344 0.11567,0.24158 0.25839,0.24158 h 0.006 c 0.14271,0 0.25838,-0.10814 0.25838,-0.24158 0,-0.13343 -0.11567,-0.24157 -0.25838,-0.24157 z m 0,0"
       id="path1463"
       style="stroke-width:0.02498379" />
    <path
       inkscape:connector-curvature="0"
       d="m -107.9691,516.37038 h 0.007 c 0.14272,0 0.25838,-0.10814 0.25838,-0.24157 0,-0.13344 -0.11566,-0.24158 -0.25838,-0.24158 h -0.007 c -0.14271,0 -0.25838,0.10814 -0.25838,0.24158 0,0.13343 0.11567,0.24157 0.25838,0.24157 z m 0,0"
       id="path1467"
       style="stroke-width:0.02498379" />
    <path
       style="opacity:1;fill:#ffffff;stroke-width:0.02498379"
       id="path2810"
       d="m -70.085049,431.05916 c 0.14272,0 0.25839,-0.10814 0.25839,-0.24157 v -0.77305 c 0,-0.13343 -0.11567,-0.24157 -0.25839,-0.24157 h -1.041 c 0.0147,-0.0527 0.0227,-0.10786 0.0227,-0.16477 v -3.14917 c 0,-0.15372 -0.0576,-0.29508 -0.15371,-0.40634 0.096,-0.11116 0.15371,-0.25252 0.15371,-0.40633 v -3.14918 c 0,-0.35726 -0.31086,-0.64791 -0.69299,-0.64791 h -4.21031 c -0.16442,0 -0.31561,0.054 -0.43461,0.14372 -0.119,-0.0897 -0.27019,-0.14372 -0.43461,-0.14372 h -2.64841 c -0.14272,0 -0.25839,0.10814 -0.25839,0.24158 v 1.21901 c 0,0.0838 0.0463,0.16156 0.12253,0.20553 0.0415,0.024 0.0886,0.036 0.13586,0.036 0.0395,0 0.0791,-0.008 0.11556,-0.0255 l 0.42774,-0.19996 0.42765,0.19996 c 0.0801,0.0375 0.17521,0.0334 0.25141,-0.0106 0.0762,-0.0441 0.12253,-0.12183 0.12253,-0.20553 v -0.97744 h 1.30352 c 0.0956,0 0.17623,0.0755 0.17623,0.16476 v 3.14918 c 0,0.0893 -0.0807,0.16476 -0.17623,0.16476 h -4.21032 c -0.0956,0 -0.17622,-0.0755 -0.17622,-0.16476 v -3.14918 c 0,-0.0519 0.0259,-0.0999 0.0713,-0.13183 0.006,-0.004 0.0128,-0.008 0.0196,-0.012 0.12434,-0.0655 0.16825,-0.21279 0.0982,-0.32905 -0.07,-0.11626 -0.2276,-0.1574 -0.35194,-0.0918 -0.0265,0.014 -0.0523,0.0297 -0.0766,0.0468 -0.1736,0.1222 -0.27725,0.31575 -0.27725,0.51788 v 3.14917 c 0,0.15372 0.0577,0.29508 0.15371,0.40634 -0.096,0.11125 -0.15371,0.25252 -0.15371,0.40634 v 3.14917 c 0,0.0569 0.008,0.1121 0.0227,0.16476 h -1.04099 c -0.14272,0 -0.25838,0.10814 -0.25838,0.24158 v 0.77304 c 0,0.13343 0.11566,0.24158 0.25838,0.24158 h 0.36173 v 0.67641 h -0.36173 c -0.14272,0 -0.25838,0.10814 -0.25838,0.24157 v 0.77305 c 0,0.13343 0.11566,0.24157 0.25838,0.24157 h 12.7124 c 0.14272,0 0.25839,-0.10814 0.25839,-0.24157 v -0.77305 c 0,-0.13343 -0.11567,-0.24157 -0.25839,-0.24157 h -0.36173 v -0.67641 z m -8.61109,-8.11016 -0.16936,-0.0792 c -0.0727,-0.034 -0.15836,-0.034 -0.23103,0 l -0.16936,0.0792 v -0.58658 h 0.56975 z m 2.51327,6.6892 v -3.14917 c 0,-0.0893 0.0807,-0.16476 0.17623,-0.16476 h 1.30351 v 0.97744 c 0,0.0838 0.0463,0.16155 0.12253,0.20553 0.0762,0.0441 0.17138,0.048 0.25142,0.0106 l 0.42764,-0.19996 0.42775,0.19996 c 0.0365,0.0171 0.0761,0.0256 0.11557,0.0256 0.0472,0 0.0944,-0.0122 0.13585,-0.0361 0.0762,-0.044 0.12253,-0.12173 0.12253,-0.20544 v -0.97753 h 1.30351 c 0.0955,0 0.17623,0.0755 0.17623,0.16476 v 3.14917 c 0,0.0894 -0.0807,0.16477 -0.17623,0.16477 h -4.21031 c -0.0955,0 -0.17623,-0.0754 -0.17623,-0.16477 z m 2.56626,-3.31393 v 0.58658 l -0.16936,-0.0792 c -0.0727,-0.034 -0.15836,-0.034 -0.23103,0 l -0.16936,0.0792 v -0.58658 z m -0.56975,-3.96185 h 0.56985 v 0.58658 l -0.16936,-0.0792 c -0.0728,-0.034 -0.15836,-0.034 -0.23113,0 l -0.16936,0.0792 z m -1.82028,0 h 1.30351 v 0.97744 c 0,0.0838 0.0463,0.16156 0.12253,0.20553 0.0415,0.024 0.0886,0.036 0.13586,0.036 0.0395,0 0.0791,-0.008 0.11556,-0.0255 l 0.42775,-0.19996 0.42764,0.19996 c 0.0801,0.0374 0.17522,0.0334 0.25142,-0.0106 0.0762,-0.0441 0.12253,-0.12183 0.12253,-0.20553 v -0.97744 h 1.30351 c 0.0955,0 0.17623,0.0755 0.17623,0.16476 v 3.14918 c 0,0.0893 -0.0807,0.16476 -0.17623,0.16476 h -4.21031 c -0.0955,0 -0.17623,-0.0755 -0.17623,-0.16476 v -3.14918 c 0,-0.0893 0.0807,-0.16476 0.17623,-0.16476 z m -3.25925,3.96185 h 0.56975 v 0.58658 l -0.16936,-0.0792 c -0.0727,-0.034 -0.15836,-0.034 -0.23103,0 l -0.16936,0.0792 z m -1.99651,3.31393 v -3.14917 c 0,-0.0893 0.0807,-0.16476 0.17622,-0.16476 h 1.30352 v 0.97744 c 0,0.0838 0.0463,0.16155 0.12253,0.20553 0.0762,0.044 0.17128,0.048 0.25142,0.0106 l 0.42764,-0.19996 0.42775,0.19996 c 0.0365,0.0171 0.0761,0.0256 0.11556,0.0256 0.0472,0 0.0944,-0.0122 0.13585,-0.0361 0.0762,-0.044 0.12253,-0.12173 0.12253,-0.20544 v -0.97753 h 1.30352 c 0.0956,0 0.17623,0.0755 0.17623,0.16476 v 3.14917 c 0,0.0894 -0.0807,0.16477 -0.17623,0.16477 h -4.21032 c -0.0956,0 -0.17622,-0.0754 -0.17622,-0.16477 z m -1.27667,0.64792 h 12.19564 v 0.28989 h -12.19564 z m 6.97632,1.44945 v -0.67641 h 3.35897 v 0.67641 z m -5.11597,0 v -0.67641 h 3.35897 v 0.67641 z m 3.87574,-0.67641 h 0.72347 v 0.67641 h -0.72347 z m -5.11597,0 h 0.72347 v 0.67641 h -0.72347 z m 11.57552,1.44946 h -12.19564 v -0.28989 h 12.19564 z m -0.62012,-0.77305 h -0.72347 v -0.67641 h 0.72347 z m 0,0"
       inkscape:connector-curvature="0" />
  </g>
</svg>
