<?xml version="1.0" encoding="UTF-8" standalone="no"?>
<!-- Created with Inkscape (http://www.inkscape.org/) -->

<svg
   xmlns:dc="http://purl.org/dc/elements/1.1/"
   xmlns:cc="http://creativecommons.org/ns#"
   xmlns:rdf="http://www.w3.org/1999/02/22-rdf-syntax-ns#"
   xmlns:svg="http://www.w3.org/2000/svg"
   xmlns="http://www.w3.org/2000/svg"
   xmlns:sodipodi="http://sodipodi.sourceforge.net/DTD/sodipodi-0.dtd"
   xmlns:inkscape="http://www.inkscape.org/namespaces/inkscape"
   width="343.95834mm"
   height="39.6875mm"
   viewBox="0 0 343.95834 39.6875"
   version="1.1"
   id="svg8"
   inkscape:version="0.92.3 (2405546, 2018-03-11)"
   sodipodi:docname="header-background.svg">
  <defs
     id="defs2" />
  <sodipodi:namedview
     id="base"
     pagecolor="#ffffff"
     bordercolor="#666666"
     borderopacity="1.0"
     inkscape:pageopacity="0.0"
     inkscape:pageshadow="2"
     inkscape:zoom="0.71980918"
     inkscape:cx="162.84374"
     inkscape:cy="81.780236"
     inkscape:document-units="mm"
     inkscape:current-layer="layer1"
     showgrid="false"
     inkscape:window-width="1366"
     inkscape:window-height="723"
     inkscape:window-x="0"
     inkscape:window-y="22"
     inkscape:window-maximized="1" />
  <metadata
     id="metadata5">
    <rdf:RDF>
      <cc:Work
         rdf:about="">
        <dc:format>image/svg+xml</dc:format>
        <dc:type
           rdf:resource="http://purl.org/dc/dcmitype/StillImage" />
        <dc:title />
      </cc:Work>
    </rdf:RDF>
  </metadata>
  <g
     inkscape:label="Layer 1"
     inkscape:groupmode="layer"
     id="layer1"
     transform="translate(77.863091,-51.311974)">
    <rect
       style="fill:#ff9906;fill-opacity:1;fill-rule:evenodd;stroke-width:0.22913587"
       id="rect815"
       width="343.95834"
       height="39.6875"
       x="-77.863091"
       y="51.311974"
       ry="0" />
    <g
       id="g852"
       transform="matrix(0.02541066,0.00468098,-0.00468098,0.02541066,178.11793,59.757892)"
       inkscape:transform-center-x="-35.907738"
       inkscape:transform-center-y="6.4255952"
       style="opacity:0.05">
      <path
         id="path817"
         d="M 499.69141,440.17578 380.39844,320.87891 c -1.875,-1.875 -4.41797,-2.92969 -7.07032,-2.92969 -2.65234,0 -5.19531,1.05469 -7.07031,2.92969 l -0.49219,0.48828 -17.99218,-17.99219 c 22.5664,-31.45313 35.86718,-69.97656 35.86718,-111.55469 C 383.64062,86.050781 297.58984,0 191.82031,0 150.74219,0 109.98828,13.535156 77.070312,38.109375 c -4.425781,3.304687 -5.332031,9.566406 -2.03125,13.992187 3.304688,4.425782 9.570313,5.335938 13.996094,2.03125 C 118.51953,32.121094 155.02344,20 191.82031,20 c 94.74219,0 171.82031,77.078125 171.82031,171.82031 0,94.74219 -77.07812,171.82031 -171.82031,171.82031 C 97.078125,363.64062 20,286.5625 20,191.82031 20,161.69922 27.960938,131.99219 43.019531,105.91016 45.78125,101.125 44.144531,95.011719 39.359375,92.25 34.578125,89.488281 28.460938,91.128906 25.699219,95.910156 8.886719,125.02734 0,158.19531 0,191.82031 c 0,105.76953 86.050781,191.82031 191.82031,191.82031 41.58203,0 80.10547,-13.30468 111.5625,-35.87109 l 17.98828,17.99219 -0.49218,0.49219 c -3.90235,3.90625 -3.90235,10.23828 0,14.14062 L 440.17578,499.69531 C 448.38281,507.89844 459.15625,512 469.93359,512 c 10.77735,0 21.55469,-4.10156 29.76172,-12.30469 0.0195,-0.0234 0.043,-0.043 0.0625,-0.0664 16.34375,-16.41407 16.32422,-43.06641 -0.0664,-59.45313 z M 319.09375,335.19922 c 5.68359,-5.04688 11.0625,-10.42969 16.10937,-16.10938 l 16.42188,16.42188 -16.10938,16.10937 z m 166.46094,150.35156 c -0.0156,0.0156 -0.0352,0.0312 -0.0469,0.0469 -8.61719,8.5664 -22.59375,8.55078 -31.1914,-0.0469 l -112.22266,-112.22656 0.48047,-0.48438 c 0.004,0 0.008,-0.004 0.0117,-0.008 l 30.25,-30.25391 c 0.008,-0.004 0.0117,-0.008 0.0156,-0.0117 l 0.47657,-0.47657 112.22265,112.22657 c 8.61328,8.60937 8.61328,22.62109 0.004,31.23437 z m 0,0"
         inkscape:connector-curvature="0" />
      <path
         id="path819"
         d="m 330.23047,271.73047 c 14.00781,-24.26172 21.41015,-51.89453 21.41015,-79.91016 C 351.64062,103.69531 279.94531,32 191.82031,32 103.69531,32 32,103.69531 32,191.82031 c 0,88.125 71.69531,159.82031 159.82031,159.82031 28.01563,0 55.64844,-7.40234 79.91406,-21.41015 4.78125,-2.76172 6.41797,-8.87891 3.65625,-13.66016 -2.76171,-4.78515 -8.875,-6.42187 -13.65625,-3.66015 -21.22656,12.2539 -45.40234,18.73046 -69.91406,18.73046 C 114.72266,331.64062 52,268.91797 52,191.82031 52,114.72266 114.72266,52 191.82031,52 c 77.09766,0 139.82422,62.72266 139.82422,139.82031 0,24.50781 -6.48047,48.6836 -18.73437,69.91016 -2.76172,4.78515 -1.1211,10.89844 3.66015,13.66015 4.78516,2.76172 10.89844,1.125 13.66016,-3.66015 z m 0,0"
         inkscape:connector-curvature="0" />
      <path
         id="path821"
         d="m 297.89844,298.05078 c 1.89843,1.67578 4.25781,2.5 6.60937,2.5 2.76953,0 5.52735,-1.14844 7.50391,-3.38672 l 0.18359,-0.21094 c 3.59766,-4.1875 3.11328,-10.49609 -1.07812,-14.09375 -4.19141,-3.60156 -10.51172,-3.10937 -14.10938,1.07813 -3.64844,4.14453 -3.2539,10.46094 0.89063,14.11328 z m 0,0"
         inkscape:connector-curvature="0" />
      <path
         id="path823"
         d="m 301.82422,231.81641 v -79.9961 c 0,-5.51953 -4.47656,-10 -10,-10 -5.52344,0 -10,4.48047 -10,10 v 79.9961 c 0,5.52343 4.47656,10 10,10 5.52344,0 10,-4.47657 10,-10 z m 0,0"
         inkscape:connector-curvature="0" />
      <path
         id="path825"
         d="m 151.82422,151.82031 v 79.9961 c 0,5.52343 4.47656,10 10,10 5.52344,0 10,-4.47657 10,-10 v -79.9961 c 0,-5.51953 -4.47656,-10 -10,-10 -5.52344,0 -10,4.48047 -10,10 z m 0,0"
         inkscape:connector-curvature="0" />
      <path
         id="path827"
         d="m 91.824219,141.82031 c -5.523438,0 -10,4.48047 -10,10 v 79.9961 c 0,5.52343 4.476562,10 10,10 h 30.000001 c 5.52344,0 10,-4.47657 10,-10 v -79.9961 c 0,-5.51953 -4.47656,-10 -10,-10 z m 20.000001,80 h -10 v -60 h 10 z m 0,0"
         inkscape:connector-curvature="0" />
      <path
         id="path829"
         d="m 231.82422,141.82031 c -5.52344,0 -10,4.48047 -10,10 v 79.9961 c 0,5.52343 4.47656,10 10,10 h 30 c 5.52344,0 10,-4.47657 10,-10 v -79.9961 c 0,-5.51953 -4.47656,-10 -10,-10 z m 20,20 v 60 h -10 v -60 z m 0,0"
         inkscape:connector-curvature="0" />
      <path
         id="path831"
         d="m 191.82422,151.82031 v 79.9961 c 0,5.52343 4.47656,10 10,10 5.52344,0 10,-4.47657 10,-10 v -79.9961 c 0,-5.51953 -4.47656,-10 -10,-10 -5.52344,0 -10,4.48047 -10,10 z m 0,0"
         inkscape:connector-curvature="0" />
      <path
         id="path833"
         d="m 60.996094,77 c 0,5.519531 -4.476563,10 -10,10 C 45.476562,87 41,82.519531 41,77 c 0,-5.523438 4.476562,-10 9.996094,-10 5.523437,0 10,4.476562 10,10 z m 0,0"
         inkscape:connector-curvature="0" />
    </g>
    <g
       id="g877"
       transform="matrix(0.02583831,0,0,0.03023985,213.87659,76.632383)"
       style="opacity:0.05">
      <path
         id="path854"
         d="m 258.39453,220.1875 c 0.10156,-0.0273 0.19922,-0.0508 0.30078,-0.0781 0.35547,-0.10156 0.70703,-0.21484 1.04688,-0.35546 0.0273,-0.008 0.0547,-0.0156 0.082,-0.0273 0.3789,-0.15625 0.74219,-0.33984 1.09765,-0.53906 0.0234,-0.0156 0.0508,-0.0273 0.0781,-0.0391 l 86.59766,-50 c 3.09375,-1.78516 5,-5.08594 5,-8.66016 V 60.496094 c 0,-0.02734 -0.004,-0.05859 -0.008,-0.08594 -0.004,-0.40625 -0.0273,-0.816406 -0.0781,-1.226562 -0.004,-0.01953 -0.0117,-0.04297 -0.0156,-0.06641 -0.0508,-0.367188 -0.125,-0.734376 -0.21875,-1.101563 -0.0273,-0.09766 -0.0547,-0.191406 -0.082,-0.289063 -0.0859,-0.292968 -0.18359,-0.585937 -0.29687,-0.875 -0.0391,-0.09375 -0.0742,-0.191406 -0.11328,-0.285156 -0.15235,-0.363281 -0.32813,-0.71875 -0.52735,-1.070312 -0.19922,-0.347656 -0.42578,-0.671875 -0.66015,-0.988282 -0.0625,-0.08594 -0.13282,-0.164062 -0.19922,-0.246093 -0.19141,-0.238281 -0.38672,-0.46875 -0.59766,-0.6875 -0.0703,-0.07422 -0.14453,-0.152344 -0.21875,-0.222657 -0.26172,-0.257812 -0.53516,-0.5 -0.82031,-0.722656 -0.0274,-0.01953 -0.0508,-0.04297 -0.0742,-0.0625 -0.32422,-0.25 -0.66406,-0.472656 -1.01172,-0.675781 -0.0273,-0.01953 -0.0508,-0.03906 -0.0781,-0.05469 L 261,1.839844 c -3.09375,-1.7851565 -6.90234,-1.7851565 -9.99609,0 l -86.60157,49.996094 c -0.0234,0.01562 -0.0469,0.03516 -0.0703,0.05078 -0.35156,0.207031 -0.69141,0.429687 -1.01953,0.679687 -0.0195,0.01563 -0.0391,0.03516 -0.0547,0.04687 -0.29297,0.230469 -0.57031,0.476563 -0.83984,0.738281 -0.0742,0.07031 -0.14063,0.144532 -0.21094,0.21875 -0.21094,0.21875 -0.41406,0.453126 -0.60937,0.695313 -0.0625,0.07813 -0.12891,0.15625 -0.19141,0.238281 -0.23438,0.316406 -0.46094,0.644532 -0.66016,0.992188 -0.20312,0.351562 -0.375,0.710937 -0.53125,1.070312 -0.0391,0.09375 -0.0742,0.191406 -0.10937,0.285156 -0.11328,0.289063 -0.21485,0.582032 -0.30078,0.875 -0.0273,0.09766 -0.0547,0.191407 -0.082,0.289063 -0.0898,0.367187 -0.16797,0.730469 -0.21875,1.101563 -0.004,0.02344 -0.008,0.04687 -0.0117,0.07031 -0.0547,0.40625 -0.0781,0.816406 -0.082,1.222656 0,0.03125 -0.004,0.05859 -0.004,0.08594 v 99.992182 c 0,3.57422 1.90234,6.875 4.99609,8.66016 l 86.60157,50 c 0.0234,0.0117 0.0508,0.0234 0.0781,0.0391 0.35156,0.19922 0.71875,0.38281 1.09766,0.53906 0.0234,0.0117 0.0508,0.0156 0.0781,0.0273 0.33985,0.14062 0.69141,0.2539 1.05078,0.35546 0.0977,0.0273 0.19922,0.0508 0.29688,0.0781 0.29687,0.0703 0.59375,0.12891 0.89844,0.17578 0.10546,0.0156 0.20703,0.0352 0.3125,0.0469 0.38671,0.0469 0.78515,0.0781 1.1875,0.0781 0.40234,0 0.79687,-0.0312 1.1875,-0.0781 0.10156,-0.0117 0.20703,-0.0312 0.30859,-0.0469 0.30078,-0.0469 0.60156,-0.10547 0.89453,-0.17578 z M 322.59766,60.496094 256,98.945312 232.69922,85.496094 299.29687,47.042969 Z M 266,193.16797 V 116.26563 L 332.59766,77.816406 V 154.71875 Z M 256,22.046875 279.30078,35.496094 212.69922,73.949219 189.39844,60.496094 Z M 179.40234,77.816406 246,116.26563 v 76.90234 l -66.59766,-38.44922 z m 0,0"
         inkscape:connector-curvature="0" />
      <path
         id="path856"
         d="m 489.5625,113.21484 c -13.42578,-2.78125 -29.87891,3.98438 -33.91016,22.04688 l -13.96484,62.55469 c -10.22266,-3.28907 -21.89844,-0.41797 -29.35938,8.20312 l -18.23437,21.0625 c -13.21094,15.26563 -13.21094,15.26563 -27.01172,18.93359 -3.21875,0.85938 -7.22656,1.92579 -12.09766,3.35157 -56.28125,16.49609 -78.36718,68.22656 -80.75,110.70312 -7.60156,3.65625 -12.86328,11.42969 -12.86328,20.41406 v 17.35547 c 0,12.48047 10.15625,22.63672 22.63672,22.63672 h 91.70313 c 12.48047,0 22.63672,-10.15625 22.63672,-22.63672 v -17.35547 c 0,-4.27343 -1.19141,-8.27734 -3.26172,-11.6914 l 41.10937,-22.08203 c 0.043,-0.0195 0.0859,-0.0469 0.12891,-0.0664 35.88672,-19.94531 42.04687,-28.91797 50.68359,-73.84375 1.04297,-5.42187 -2.50781,-10.66406 -7.93359,-11.70703 -5.42969,-1.04297 -10.66406,2.50781 -11.70703,7.93359 -7.80078,40.57813 -11.30078,43.76172 -40.69532,60.10157 l -53.47265,28.71875 H 294.4375 c 2.91406,-35.04297 21.36328,-76.15625 66.17578,-89.28907 4.625,-1.35547 8.33984,-2.34375 11.61328,-3.21484 17.51563,-4.66016 20.70703,-6.36328 36.98828,-25.17188 l 18.23438,-21.0625 c 1.31641,-1.52343 3.16797,-2.4414 5.21094,-2.58984 2.04297,-0.14844 4.00781,0.5 5.53125,1.81641 3.92578,3.39453 1.85547,8.98047 0.0117,11.74609 -9.49219,14.25391 -18.84375,27.84375 -27.89063,40.98828 -4.62109,6.71485 -9.24219,13.4336 -13.90234,20.26563 -3.11328,4.5625 -1.9375,10.78125 2.625,13.89453 4.55859,3.11328 10.78125,1.9375 13.89453,-2.625 4.64453,-6.8086 9.25,-13.50391 13.85937,-20.19922 9.08594,-13.20313 18.48047,-26.85938 28.0586,-41.23828 5.80859,-8.71875 6.96484,-18.89453 3.77343,-27.40235 l 16.54688,-74.14453 c 1.82031,-8.16015 8.91797,-7.12109 10.32422,-6.82422 2.34765,0.48829 7.66406,2.41016 6.25781,9.70313 l -11.33203,58.80469 c -1.04688,5.42187 2.50391,10.66797 7.92578,11.71093 5.42188,1.04688 10.66797,-2.5039 11.71094,-7.92578 l 11.33203,-58.80859 c 3.46875,-18.00781 -8.35156,-30.26563 -21.82422,-33.06641 z m -111.21484,284.625 c 0,1.42969 -1.20703,2.63672 -2.63672,2.63672 h -91.70313 c -1.42968,0 -2.63672,-1.20703 -2.63672,-2.63672 v -17.35547 c 0,-1.42968 1.20704,-2.63671 2.63672,-2.63671 h 91.6836 0.0273 0.008 c 1.42188,0.0117 2.6211,1.21484 2.6211,2.63671 z m 0,0"
         inkscape:connector-curvature="0" />
      <path
         id="path858"
         d="m 486.68359,221.58594 c -5.42578,-1.04297 -10.66406,2.51172 -11.70312,7.9375 l -0.0508,0.26172 c -1.04297,5.42578 2.51172,10.66796 7.93359,11.70703 0.63672,0.12109 1.27344,0.17968 1.89844,0.17968 4.69922,0 8.89062,-3.32812 9.80859,-8.11328 l 0.0508,-0.26562 c 1.03907,-5.42578 -2.51562,-10.66797 -7.9375,-11.70703 z m 0,0"
         inkscape:connector-curvature="0" />
      <path
         id="path860"
         d="m 237.76562,360.07031 c -2.38281,-42.47656 -24.46875,-94.21094 -80.7539,-110.70312 -4.86719,-1.42578 -8.875,-2.49219 -12.09766,-3.35157 -13.79687,-3.67187 -13.79687,-3.67187 -27.01172,-18.93359 L 99.671875,206.01953 C 92.207031,197.39844 80.535156,194.52734 70.308594,197.8125 L 56.347656,135.26172 C 52.316406,117.20313 35.871094,110.41797 22.4375,113.21484 c -13.472656,2.80079 -25.296875,15.0586 -21.824219,33.06641 1.042969,5.42187 6.285157,8.97266 11.710938,7.92969 5.421875,-1.04688 8.96875,-6.28907 7.925781,-11.71094 -1.40625,-7.29297 3.90625,-9.21875 6.257812,-9.70703 1.398438,-0.29297 8.5,-1.33594 10.320313,6.82422 l 16.550781,74.14843 c -3.191406,8.50391 -2.035156,18.6836 3.773438,27.40235 9.578125,14.3789 18.972656,28.03125 28.058594,41.23828 4.609374,6.69531 9.214843,13.39062 13.859374,20.19922 3.113278,4.5625 9.335938,5.73437 13.894528,2.625 4.5625,-3.11328 5.73829,-9.33594 2.625,-13.89453 -4.66015,-6.83203 -9.28125,-13.55078 -13.90234,-20.26563 -9.046875,-13.14453 -18.394531,-26.73828 -27.890625,-40.98828 -1.84375,-2.76562 -3.910156,-8.35156 0.01172,-11.74609 1.523437,-1.32032 3.480468,-1.96485 5.53125,-1.81641 2.042968,0.14453 3.894531,1.06641 5.210937,2.58984 l 18.230468,21.0625 c 16.28516,18.8086 19.47656,20.51172 36.99219,25.17188 3.27343,0.87109 6.98437,1.85937 11.61328,3.21484 44.8125,13.13282 63.26172,54.2461 66.17578,89.28907 H 138.80078 L 85.328125,329.12891 C 55.933594,312.78906 52.433594,309.60547 44.628906,269.01953 L 33.296875,210.21484 c -1.042969,-5.42187 -6.285156,-8.96875 -11.710937,-7.92578 -5.421876,1.04688 -8.96875,6.28906 -7.925782,11.71094 l 11.332032,58.80078 c 8.636718,44.92578 14.792968,53.89453 50.683593,73.84375 0.04297,0.0234 0.08594,0.0469 0.125,0.0703 l 41.109379,22.07813 c -2.06641,3.41406 -3.25782,7.41797 -3.25782,11.6914 v 17.35547 c 0,12.48047 10.15235,22.63672 22.63672,22.63672 h 91.70313 c 12.48047,0 22.63672,-10.15625 22.63672,-22.63672 V 380.48437 C 250.625,371.5 245.36719,363.72656 237.76562,360.07031 Z m -7.14062,37.76953 c 0,1.42969 -1.20703,2.63672 -2.63672,2.63672 h -91.70312 c -1.42969,0 -2.63672,-1.20703 -2.63672,-2.63672 v -17.35547 c 0,-1.42578 1.19922,-2.625 2.62109,-2.63671 h 0.008 0.0273 91.68359 c 1.42969,0 2.63672,1.20703 2.63672,2.63671 z m 0,0"
         inkscape:connector-curvature="0" />
      <path
         id="path862"
         d="m 19.925781,193.71875 c 5.425781,-1.03906 8.976563,-6.28125 7.9375,-11.70313 L 27.8125,181.75 c -1.039062,-5.42188 -6.273438,-8.98047 -11.707031,-7.9375 -5.421875,1.03906 -8.976563,6.28125 -7.933594,11.70703 l 0.050781,0.26172 c 0.917969,4.78906 5.109375,8.11719 9.808594,8.11719 0.625,0 1.257812,-0.0586 1.894531,-0.17969 z m 0,0"
         inkscape:connector-curvature="0" />
    </g>
    <g
       id="g908"
       transform="matrix(0.02583822,0,0,0.0276087,213.8766,50.7013)"
       style="opacity:0.05">
      <path
         id="path879"
         d="m 75.765625,20 h 0.269531 c 5.519532,0 10,-4.476562 10,-10 0,-5.523438 -4.480468,-10 -10,-10 h -0.269531 c -5.523437,0 -10,4.476562 -10,10 0,5.523438 4.476563,10 10,10 z m 0,0"
         inkscape:connector-curvature="0" />
      <path
         id="path881"
         d="M 486,0 H 116 c -5.52344,0 -10,4.476562 -10,10 0,5.523438 4.47656,10 10,10 h 70 v 50 c 0,3.464844 1.79687,6.683594 4.74219,8.507812 2.94922,1.820313 6.63281,1.988282 9.73047,0.4375 L 216,71.179688 l 15.52734,7.765624 c 2.8125,1.40625 6.12891,1.40625 8.94141,0 L 256,71.179688 l 15.52344,7.765624 c 2.8164,1.40625 6.1289,1.40625 8.94531,0 L 296,71.179688 311.52734,78.945312 C 312.9375,79.652344 314.46875,80 316,80 c 1.82812,0 3.64844,-0.5 5.25781,-1.492188 C 324.20312,76.6875 326,73.46875 326,70 V 20 h 160 c 3.25391,0 6,2.75 6,6 v 408 c 0,3.25391 -2.74609,6 -6,6 H 326 v -50 c 0,-3.46484 -1.79688,-6.6875 -4.74219,-8.50781 -2.94922,-1.82032 -6.6289,-1.98828 -9.73047,-0.4375 L 296,388.81641 280.47266,381.05469 c -2.81641,-1.41016 -6.12891,-1.41016 -8.94532,0 L 256,388.81641 240.47266,381.05469 c -2.8125,-1.41016 -6.12891,-1.41016 -8.94141,0 l -15.52734,7.76172 -15.53125,-7.76172 c -3.09766,-1.55078 -6.77735,-1.38672 -9.72657,0.4375 -2.94922,1.82031 -4.74218,5.03906 -4.74218,8.50781 v 50 H 26 c -3.253906,0 -6,-2.75 -6,-6 V 26 c 0,-3.253906 2.746094,-6 6,-6 h 21.035156 c 5.519532,0 10,-4.476562 10,-10 0,-5.523438 -4.480468,-10 -10,-10 H 26 C 11.664062,0 0,11.664062 0,26 v 408 c 0,14.33594 11.664062,26 26,26 h 460 c 14.33594,0 26,-11.66406 26,-26 V 26 C 512,11.664062 500.33594,0 486,0 Z m -180,53.820312 -5.52734,-2.765624 c -2.81641,-1.40625 -6.12891,-1.40625 -8.94532,0 L 276,58.820312 260.47266,51.054688 c -2.81641,-1.40625 -6.12891,-1.40625 -8.94141,0 L 236,58.820312 220.47266,51.054688 c -2.8125,-1.40625 -6.12891,-1.40625 -8.94141,0 l -5.52734,2.765624 V 20 H 306 Z m -100,352.359378 5.52734,2.76172 c 2.81641,1.41015 6.12891,1.41015 8.94532,0 L 236,401.17969 l 15.52734,7.76172 c 2.8125,1.41015 6.12891,1.41015 8.94532,0 L 276,401.17969 l 15.52734,7.76172 c 2.8125,1.41015 6.12891,1.41015 8.94532,0 L 306,406.17969 V 440 H 206 Z m 0,0"
         inkscape:connector-curvature="0" />
      <path
         id="path883"
         d="m 401.99609,410 c -5.51953,0 -10,4.47656 -10,10 0,5.52344 4.48047,10 10,10 h 0.23828 c 5.51954,0 10,-4.47656 10,-10 0,-5.52344 -4.48046,-10 -10,-10 z m 0,0"
         inkscape:connector-curvature="0" />
      <path
         id="path885"
         d="m 472,429.99609 c 5.51953,0 10,-4.47656 10,-10 0,-5.51953 -4.48047,-10 -10,-10 h -41.03516 c -5.52343,0 -10,4.48047 -10,10 0,5.52344 4.47657,10 10,10 z m 0,0"
         inkscape:connector-curvature="0" />
      <path
         id="path887"
         d="m 141.90234,200.49609 3.69922,-3.69922 V 262 c 0,14.33594 11.66406,26 26,26 14.33594,0 26,-11.66406 26,-26 v -65.20313 l 3.69922,3.69922 c 10.13672,10.13672 26.62891,10.13672 36.76953,0 4.89844,-4.89843 7.59766,-11.42968 7.59766,-18.38672 0,-6.95703 -2.69922,-13.48828 -7.59766,-18.38281 L 189.98828,115.64063 C 185.05859,110.71094 178.53125,108 171.60156,108 c -6.92969,0 -13.45703,2.71094 -18.38672,7.64063 l -48.07812,48.08593 c -4.89844,4.89453 -7.597658,11.42578 -7.597658,18.38281 0,6.95704 2.695318,13.48438 7.593748,18.38672 10.13672,10.13672 26.63672,10.13672 36.76953,0 z m -22.625,-22.6289 48.08203,-48.08203 C 168.50781,128.63281 170.01562,128 171.60156,128 c 1.58594,0 3.09375,0.63281 4.24219,1.78516 l 48.08594,48.08203 c 1.11718,1.12109 1.73437,2.6289 1.73437,4.24218 0,1.61329 -0.61719,3.1211 -1.73828,4.24219 -1.12109,1.1211 -2.625,1.73828 -4.24219,1.73828 -1.61328,0 -3.12109,-0.61718 -4.24218,-1.73828 l -20.76954,-20.76953 c -2.85937,-2.85937 -7.16015,-3.71484 -10.89843,-2.16797 -3.73438,1.54688 -6.17188,5.19531 -6.17188,9.23828 V 262 c 0,3.25 -2.74609,6 -6,6 -3.25,0 -6,-2.75 -6,-6 v -89.34766 c 0,-4.04297 -2.4375,-7.6914 -6.17187,-9.23828 -1.23828,-0.51172 -2.53907,-0.76172 -3.82422,-0.76172 -2.60547,0 -5.16016,1.01563 -7.07422,2.92969 l -20.76953,20.76953 c -1.12109,1.1211 -2.62891,1.73828 -4.24219,1.73828 -1.61719,0 -3.12109,-0.61718 -4.24219,-1.73828 -1.12109,-1.12109 -1.73828,-2.625 -1.73828,-4.24219 0,-1.61328 0.61719,-3.12109 1.73828,-4.24218 z m 0,0"
         inkscape:connector-curvature="0" />
      <path
         id="path889"
         d="M 406.86719,163.72656 358.78125,115.64063 C 353.85547,110.71484 347.32422,108 340.39844,108 c -6.92969,0 -13.45703,2.71484 -18.38672,7.64063 l -48.08203,48.08593 c -4.89844,4.89453 -7.59766,11.42578 -7.59766,18.38281 0,6.95704 2.69922,13.48829 7.59766,18.38672 10.13672,10.13672 26.6289,10.13672 36.76953,0 l 3.69922,-3.69922 V 262 c 0,14.33594 11.66015,26 26,26 14.33593,0 26,-11.66406 26,-26 v -65.20313 l 3.69531,3.69922 c 10.13672,10.13672 26.63281,10.13672 36.77344,-0.004 10.13672,-10.13672 10.13672,-26.62891 0,-36.76563 z m -14.14453,22.625 c -2.29688,2.30078 -6.1836,2.30078 -8.48438,0 l -20.76953,-20.76953 c -2.85938,-2.85937 -7.16016,-3.71094 -10.89844,-2.16797 -3.73437,1.54688 -6.17187,5.19531 -6.17187,9.23828 V 262 c 0,3.25 -2.75,6 -6,6 -3.25391,0 -6,-2.75 -6,-6 v -89.34766 c 0,-4.04297 -2.4375,-7.6914 -6.17188,-9.23828 -1.23828,-0.51172 -2.53906,-0.76172 -3.82812,-0.76172 -2.60157,0 -5.15625,1.01563 -7.07032,2.92969 l -20.76953,20.76953 c -2.30078,2.30078 -6.1875,2.30078 -8.48437,0 -1.1211,-1.12109 -1.73828,-2.625 -1.73828,-4.24219 0,-1.61328 0.61718,-3.12109 1.73828,-4.24218 l 48.08203,-48.08203 C 337.30469,128.63281 338.8125,128 340.39844,128 c 1.58593,0 3.09375,0.63281 4.24218,1.78516 l 48.08204,48.08203 c 1.12109,1.12109 1.73828,2.6289 1.73828,4.24218 0,1.61719 -0.61719,3.1211 -1.73828,4.24219 z m 0,0"
         inkscape:connector-curvature="0" />
      <path
         id="path891"
         d="m 145.60156,326 c 0,14.33594 11.66406,26 26,26 h 168.79688 c 14.33593,0 26,-11.66406 26,-26 0,-14.33594 -11.66407,-26 -26,-26 H 171.60156 c -14.33594,0 -26,11.66406 -26,26 z m 200.79688,0 c 0,3.25 -2.75,6 -6,6 H 171.60156 c -3.25,0 -6,-2.75 -6,-6 0,-3.25391 2.75,-6 6,-6 h 168.79688 c 3.25,0 6,2.74609 6,6 z m 0,0"
         inkscape:connector-curvature="0" />
    </g>
    <g
       id="g963"
       transform="matrix(0.02519841,0,0,0.02583822,-69.468763,61.396988)"
       inkscape:transform-center-y="14.165285"
       style="opacity:0.05">
      <path
         id="path910"
         d="m 332.44531,469.21875 h 17.99219 c 16.54297,0 30,-13.45703 30,-30 V 222.51953 c 0,-16.53906 -13.45703,-30 -30,-30 H 69.566406 c -16.542968,0 -30,13.46094 -30,30 v 216.69922 c 0,16.54297 13.457032,30 30,30 H 263.48047 c 5.52344,0 10,-4.47656 10,-10 V 212.51953 h 76.95703 c 5.51562,0 10,4.48828 10,10 v 216.69922 c 0,5.51562 -4.48438,10 -10,10 h -17.99219 c -5.52344,0 -10,4.48047 -10,10 0,5.52344 4.47656,10 10,10 z M 166.52344,340.87109 h 86.95703 V 449.21875 H 166.52344 Z M 69.566406,212.51953 H 146.52344 V 320.87109 H 59.566406 v -98.35156 c 0,-5.51172 4.484375,-10 10,-10 z m -10,226.69922 V 340.87109 H 146.52344 V 449.21875 H 69.5625 c -5.511719,0 -9.996094,-4.48438 -9.996094,-10 z M 253.48047,320.87109 H 166.52344 V 212.51953 h 86.95703 z m 0,0"
         inkscape:connector-curvature="0" />
      <path
         id="path912"
         d="m 380.4375,72.78125 c 0,-16.542969 -13.46094,-30 -30,-30 H 69.566406 c -16.542968,0 -30,13.457031 -30,30 v 66.95703 c 0,16.54297 13.457032,30 30,30 H 350.4375 c 16.53906,0 30,-13.45703 30,-30 z m -20,66.95703 c 0,5.51563 -4.48828,10 -10,10 H 69.566406 c -5.515625,0 -10,-4.48437 -10,-10 V 72.78125 c 0,-5.511719 4.484375,-10 10,-10 H 350.4375 c 5.51172,0 10,4.488281 10,10 z m 0,0"
         inkscape:connector-curvature="0" />
      <path
         id="path914"
         d="m 87.917969,276.69531 h 5.125 v 5.125 c 0,5.52344 4.476562,10 10.000001,10 5.52344,0 10,-4.47656 10,-10 v -5.125 h 5.12891 c 5.51953,0 9.99999,-4.48047 9.99999,-10 0,-5.52344 -4.48046,-10 -9.99999,-10 h -5.12891 v -5.1289 c 0,-5.51954 -4.47656,-10 -10,-10 -5.523439,0 -10.000001,4.48046 -10.000001,10 v 5.1289 h -5.125 c -5.523438,0 -10,4.47656 -10,10 0,5.51953 4.476562,10 10,10 z m 0,0"
         inkscape:connector-curvature="0" />
      <path
         id="path916"
         d="m 194.875,276.69531 h 30.25391 c 5.51953,0 10,-4.47656 10,-10 0,-5.51953 -4.48047,-10 -10,-10 H 194.875 c -5.52344,0 -10,4.48047 -10,10 0,5.52344 4.47656,10 10,10 z m 0,0"
         inkscape:connector-curvature="0" />
      <path
         id="path918"
         d="m 224.14453,395.04687 8.05469,-8.05859 c 3.90234,-3.90234 3.90234,-10.23437 0,-14.14062 -3.90625,-3.90625 -10.23828,-3.90625 -14.14453,0 L 210,380.90234 l -8.05469,-8.05468 c -3.90625,-3.90235 -10.23437,-3.90625 -14.14062,0 -3.90625,3.90625 -3.90625,10.23828 0,14.14062 l 8.05468,8.05859 -8.05468,8.05469 c -3.90625,3.90235 -3.90625,10.23438 0,14.14063 1.95312,1.95312 4.51172,2.92968 7.07031,2.92968 2.55859,0 5.11719,-0.97656 7.07031,-2.92968 L 210,409.1875 l 8.05469,8.05469 c 1.95312,1.95312 4.51172,2.92968 7.07422,2.92968 2.55859,0 5.11718,-0.97656 7.07031,-2.92968 3.90234,-3.90235 3.90234,-10.23438 0,-14.14063 z m 0,0"
         inkscape:connector-curvature="0" />
      <path
         id="path920"
         d="m 125.24219,372.84766 c -3.90625,-3.90235 -10.23828,-3.90235 -14.14453,0 l -30.250004,30.2539 c -3.90625,3.90625 -3.90625,10.23828 0,14.14063 1.953125,1.95312 4.511719,2.92968 7.070313,2.92968 2.558593,0 5.117187,-0.97656 7.070312,-2.92968 l 30.253909,-30.25 c 3.90234,-3.90625 3.90234,-10.23828 0,-14.14453 z m 0,0"
         inkscape:connector-curvature="0" />
      <path
         id="path922"
         d="m 301.95703,324.68359 h 30 c 5.52344,0 10,-4.47656 10,-10 0,-5.52343 -4.47656,-10 -10,-10 h -30 c -5.52344,0 -10,4.47657 -10,10 0,5.52344 4.47656,10 10,10 z m 0,0"
         inkscape:connector-curvature="0" />
      <path
         id="path924"
         d="m 341.95703,347.05859 c 0,-5.52343 -4.47656,-10 -10,-10 h -30 c -5.52344,0 -10,4.47657 -10,10 0,5.51953 4.47656,10 10,10 h 30 c 5.52344,0 10,-4.48047 10,-10 z m 0,0"
         inkscape:connector-curvature="0" />
      <path
         id="path926"
         d="M 390,0 H 130 c -5.52344,0 -10,4.476562 -10,10 0,5.523438 4.47656,10 10,10 h 260 c 5.51562,0 10,4.484375 10,10 v 452 c 0,5.51562 -4.48438,10 -10,10 H 30 c -5.515625,0 -10,-4.48438 -10,-10 V 30 c 0,-5.515625 4.484375,-10 10,-10 h 31.035156 c 5.523438,0 10,-4.476562 10,-10 0,-5.523438 -4.476562,-10 -10,-10 H 30 C 13.457031,0 0,13.457031 0,30 v 452 c 0,16.54297 13.457031,30 30,30 h 360 c 16.54297,0 30,-13.45703 30,-30 V 30 C 420,13.457031 406.54297,0 390,0 Z m 0,0"
         inkscape:connector-curvature="0" />
      <path
         id="path928"
         d="m 89.765625,20 h 0.269531 c 5.523438,0 10.000004,-4.476562 10.000004,-10 0,-5.523438 -4.476566,-10 -10.000004,-10 h -0.269531 c -5.523437,0 -10,4.476562 -10,10 0,5.523438 4.476563,10 10,10 z m 0,0"
         inkscape:connector-curvature="0" />
      <path
         id="path930"
         d="M 124.77344,119.73828 H 87.917969 c -5.523438,0 -10,4.47656 -10,10 0,5.51953 4.476562,10 10,10 h 36.855471 c 5.52343,0 10,-4.48047 10,-10 0,-5.52344 -4.47657,-10 -10,-10 z m 0,0"
         inkscape:connector-curvature="0" />
      <path
         id="path932"
         d="m 193.875,119.73828 h -36.85547 c -5.52344,0 -10,4.47656 -10,10 0,5.51953 4.47656,10 10,10 H 193.875 c 5.52344,0 10,-4.48047 10,-10 0,-5.52344 -4.47656,-10 -10,-10 z m 0,0"
         inkscape:connector-curvature="0" />
      <path
         id="path934"
         d="M 262.98047,119.73828 H 226.125 c -5.52344,0 -10,4.47656 -10,10 0,5.51953 4.47656,10 10,10 h 36.85547 c 5.52344,0 10,-4.48047 10,-10 0,-5.52344 -4.47656,-10 -10,-10 z m 0,0"
         inkscape:connector-curvature="0" />
      <path
         id="path936"
         d="m 332.08203,119.73828 h -36.85156 c -5.52344,0 -10,4.47656 -10,10 0,5.51953 4.47656,10 10,10 h 36.85156 c 5.52344,0 10,-4.48047 10,-10 0,-5.52344 -4.47656,-10 -10,-10 z m 0,0"
         inkscape:connector-curvature="0" />
      <path
         id="path938"
         d="m 303.44531,449.21875 c -5.52344,0 -10,4.48047 -10,10 0,5.52344 4.47656,10 10,10 h 0.26953 c 5.52344,0 10,-4.47656 10,-10 0,-5.51953 -4.47656,-10 -10,-10 z m 0,0"
         inkscape:connector-curvature="0" />
    </g>
    <g
       id="g1007"
       transform="matrix(0.02583822,0,0,0.02588315,-37.014237,52.279252)"
       style="opacity:0.05">
      <path
         id="path984"
         d="m 71.753906,20 h 0.269532 c 5.523437,0 10,-4.476562 10,-10 0,-5.523438 -4.476563,-10 -10,-10 h -0.269532 c -5.523437,0 -10,4.476562 -10,10 0,5.523438 4.476563,10 10,10 z m 0,0"
         inkscape:connector-curvature="0" />
      <path
         id="path986"
         d="M 512,30 C 512,13.457031 498.54297,0 482,0 H 111.98828 c -5.52344,0 -10,4.476562 -10,10 0,5.523438 4.47656,10 10,10 H 482 c 5.51562,0 10,4.484375 10,10 H 20 c 0,-5.515625 4.484375,-10 10,-10 h 13.023438 c 5.523437,0 10,-4.476562 10,-10 0,-5.523438 -4.476563,-10 -10,-10 H 30 C 13.457031,0 0,13.457031 0,30 v 320 c 0,16.54297 13.457031,30 30,30 h 173.19531 l -15,60 h -23.23047 c -5.52343,0 -10,4.47656 -10,10 0,5.52344 4.47657,10 10,10 h 182.07032 c 5.52343,0 10,-4.47656 10,-10 0,-5.52344 -4.47657,-10 -10,-10 h -23.22657 l -15,-60 H 482 c 16.54297,0 30,-13.45703 30,-30 z M 20,50 H 492 V 322.83984 H 312.57031 c -2.10937,0 -4.16797,0.66797 -5.8789,1.91016 l -7.22266,5.25 h -86.9375 l -7.22656,-5.25 c -1.70703,-1.24219 -3.76563,-1.91016 -5.87891,-1.91016 H 20 Z m 283.19141,390 h -94.38282 l 15,-60 h 64.38282 z M 482,360 H 30 c -5.515625,0 -10,-4.48438 -10,-10 v -7.16016 h 176.17969 l 7.22656,5.25 c 1.70703,1.24219 3.76562,1.91016 5.875,1.91016 h 93.4375 c 2.11328,0 4.16797,-0.66797 5.87891,-1.91016 l 7.22656,-5.25 H 492 V 350 c 0,5.51562 -4.48438,10 -10,10 z m 0,0"
         inkscape:connector-curvature="0" />
      <path
         id="path988"
         d="m 251.07812,298.69922 c 0.35157,0.19922 0.71875,0.38281 1.09766,0.53906 0.0273,0.0117 0.0508,0.0195 0.0742,0.0274 0.34375,0.14062 0.69531,0.25781 1.05469,0.35546 0.0977,0.0274 0.19922,0.0508 0.29687,0.0781 0.29688,0.0742 0.59766,0.12891 0.90235,0.17578 0.10156,0.0156 0.20312,0.0352 0.30859,0.0469 0.39062,0.0469 0.78516,0.0781 1.1875,0.0781 0.40234,0 0.79687,-0.0312 1.1875,-0.0781 0.10547,-0.0117 0.20703,-0.0312 0.30859,-0.0469 0.30469,-0.0469 0.60547,-0.10547 0.90235,-0.17578 0.0976,-0.0273 0.19531,-0.0508 0.29687,-0.0781 0.35938,-0.0976 0.71875,-0.21484 1.0625,-0.35546 0.0195,-0.0117 0.043,-0.0156 0.0625,-0.0234 0.38282,-0.16016 0.75,-0.34375 1.10547,-0.54688 0.0234,-0.0117 0.0508,-0.0195 0.0742,-0.0351 l 86.60547,-50 c 3.09375,-1.78516 5,-5.08594 5,-8.66016 V 140 c 0,-0.0273 -0.004,-0.0586 -0.008,-0.0859 -0.004,-0.40625 -0.0274,-0.8164 -0.0781,-1.22656 -0.004,-0.0195 -0.0117,-0.043 -0.0156,-0.0664 -0.0508,-0.36718 -0.125,-0.73437 -0.21875,-1.10156 -0.0274,-0.0977 -0.0547,-0.1914 -0.082,-0.28906 -0.0859,-0.29688 -0.1836,-0.58594 -0.29688,-0.875 -0.0391,-0.0937 -0.0742,-0.19141 -0.11328,-0.28906 -0.15625,-0.35938 -0.32813,-0.71485 -0.52734,-1.06641 0,0 0,0 0,-0.004 -0.20313,-0.34765 -0.42579,-0.67187 -0.66016,-0.98828 -0.0625,-0.082 -0.13281,-0.16406 -0.19922,-0.24609 -0.19141,-0.23828 -0.39062,-0.46875 -0.59766,-0.68359 -0.0742,-0.0781 -0.14453,-0.15235 -0.22265,-0.22657 -0.26172,-0.25781 -0.53516,-0.5 -0.82031,-0.72265 -0.0234,-0.0195 -0.0469,-0.043 -0.0742,-0.0625 -0.32422,-0.2461 -0.66016,-0.47266 -1.00782,-0.67578 -0.0273,-0.0156 -0.0508,-0.0352 -0.0781,-0.0508 L 261,81.339844 c -3.09375,-1.789063 -6.90625,-1.789063 -10,0 l -86.60156,49.999996 c -0.0273,0.0156 -0.0508,0.0352 -0.0742,0.0469 -0.35156,0.20703 -0.69141,0.42969 -1.01563,0.67969 -0.0234,0.0195 -0.043,0.0391 -0.0664,0.0586 -0.28906,0.22266 -0.56641,0.46875 -0.82813,0.72656 -0.0742,0.0742 -0.14843,0.14844 -0.21875,0.22266 -0.21093,0.21875 -0.41015,0.44531 -0.59765,0.6875 -0.0664,0.082 -0.13672,0.16406 -0.20313,0.25 -0.23047,0.30859 -0.45312,0.63281 -0.64844,0.97656 -0.004,0.008 -0.0117,0.0156 -0.0156,0.0234 -0.19922,0.34375 -0.36719,0.69922 -0.51953,1.05469 -0.043,0.0977 -0.0781,0.19531 -0.11328,0.29297 -0.11328,0.28515 -0.21485,0.57421 -0.29688,0.86718 -0.0312,0.0977 -0.0586,0.19532 -0.082,0.29297 -0.0937,0.36328 -0.17187,0.73047 -0.22266,1.09766 0,0.0234 -0.008,0.0469 -0.0117,0.0703 -0.0547,0.41016 -0.0781,0.81641 -0.0781,1.22656 0,0.0273 -0.008,0.0547 -0.008,0.0859 v 100 c 0,3.57031 1.90625,6.87109 5,8.66016 l 86.60156,50 c 0.0234,0.0156 0.0508,0.0234 0.0781,0.0391 z M 322.60547,140 256,178.45313 232.69922,165 299.30078,126.54688 Z M 266,272.67969 v -76.90625 l 66.60547,-38.45313 v 76.90625 z M 256,101.54688 279.30078,115 212.69922,153.45313 189.39844,140 Z M 179.39844,157.32031 246,195.77344 v 76.90625 l -66.60156,-38.45313 z m 0,0"
         inkscape:connector-curvature="0" />
      <path
         id="path990"
         d="m 401.99609,312.83984 h 0.23828 c 5.51954,0 10,-4.47656 10,-10 0,-5.52343 -4.48046,-10 -10,-10 h -0.23828 c -5.51953,0 -10,4.47657 -10,10 0,5.52344 4.48047,10 10,10 z m 0,0"
         inkscape:connector-curvature="0" />
      <path
         id="path992"
         d="M 430.96484,312.83984 H 472 c 5.51953,0 10,-4.47656 10,-10 0,-5.52343 -4.48047,-10 -10,-10 h -41.03516 c -5.52343,0 -10,4.47657 -10,10 0,5.52344 4.47657,10 10,10 z m 0,0"
         inkscape:connector-curvature="0" />
    </g>
    <g
       id="g1029"
       transform="matrix(0.02583822,0,0,0.02588321,-37.014237,78.403544)"
       inkscape:transform-center-x="21.166667"
       inkscape:transform-center-y="57.452381"
       style="opacity:0.05">
      <path
         id="path1009"
         d="m 448.87109,340.30078 -38.18359,38.18359 -15.55859,-15.55468 c -3.90235,-3.90625 -10.23438,-3.90625 -14.14063,0 -3.90625,3.90625 -3.90625,10.23828 0,14.14062 l 22.62891,22.62891 c 1.875,1.875 4.41797,2.92578 7.07031,2.92578 2.65234,0 5.19531,-1.05078 7.07031,-2.92578 l 45.25391,-45.25781 c 3.90625,-3.90235 3.90625,-10.23438 0,-14.14063 -3.90625,-3.90625 -10.23828,-3.90625 -14.14063,0 z m 0,0"
         inkscape:connector-curvature="0" />
      <path
         id="path1011"
         d="m 422,280 c -6.21875,0 -12.29688,0.63281 -18.16797,1.84375 V 207.64453 L 455,178.10547 c 3.09375,-1.78906 5,-5.08985 5,-8.66016 0,-3.57422 -1.90625,-6.875 -5,-8.66015 L 413.83203,137.01953 455,113.25 c 3.09375,-1.78516 5,-5.08594 5,-8.66016 0,-3.57031 -1.90625,-6.87109 -5,-8.660152 L 291.16406,1.339844 c -3.09375,-1.785156 -6.90625,-1.785156 -10,0 L 230,30.878906 178.83594,1.339844 c -3.09375,-1.785156 -6.90625,-1.785156 -10,0 L 91.601562,45.929688 c -4.78125,2.761718 -6.421874,8.875 -3.660156,13.660156 2.761719,4.78125 8.878906,6.417968 13.660154,3.660156 L 173.83594,21.546875 210,42.425781 66.164062,125.47266 30,104.58984 41.875,97.734375 c 4.785156,-2.761719 6.421875,-8.878906 3.660156,-13.660156 -2.757812,-4.785157 -8.875,-6.421875 -13.660156,-3.660157 L 5,95.929688 c -3.09375,1.789062 -5,5.089842 -5,8.660152 0,3.57422 1.90625,6.875 5,8.66016 L 46.164062,137.01953 5,160.78516 c -3.09375,1.78515 -5,5.08593 -5,8.66015 0,3.57031 1.90625,6.8711 5,8.66016 l 51.164062,29.53906 v 118.55078 c 0,3.57422 1.90625,6.875 5,8.66016 L 225,429.44922 c 0.0234,0.0117 0.0508,0.0234 0.0742,0.0351 0.35547,0.20313 0.72265,0.38672 1.10156,0.54297 0.0234,0.0117 0.0469,0.0156 0.0664,0.0274 0.34375,0.13672 0.69922,0.2539 1.0625,0.35547 0.0977,0.0273 0.19531,0.0508 0.29297,0.0742 0.29687,0.0742 0.59765,0.13281 0.90625,0.17968 0.10156,0.0156 0.20312,0.0352 0.30468,0.0469 0.39063,0.0469 0.78907,0.0781 1.19141,0.0781 0.40234,0 0.79687,-0.0312 1.1875,-0.0781 0.10547,-0.0117 0.20312,-0.0312 0.30859,-0.0469 0.30469,-0.0469 0.60547,-0.10547 0.90235,-0.17968 0.0977,-0.0234 0.19531,-0.0469 0.29297,-0.0742 0.36328,-0.10157 0.71875,-0.21875 1.0664,-0.35547 0.0195,-0.0117 0.043,-0.0156 0.0625,-0.0274 0.38281,-0.15625 0.7461,-0.33984 1.10156,-0.54297 0.0273,-0.0117 0.0547,-0.0234 0.0781,-0.0351 l 97.07031,-56.04688 C 333.86719,421.45703 373.51562,460 422,460 c 49.625,0 90,-40.375 90,-90 0,-49.625 -40.375,-90 -90,-90 z m -38.16797,8.50781 c -24.42187,11.48438 -42.875,33.625 -49.32812,60.39844 L 240,403.46875 V 248.92578 l 41.16406,23.76953 c 1.54688,0.89063 3.27344,1.33985 5,1.33985 1.72657,0 3.45313,-0.44922 5,-1.33985 l 92.67188,-53.5039 v 69.3164 z M 286.16406,252.48828 250,231.60547 393.83203,148.5625 430,169.44531 Z M 240,214.28516 V 59.746094 L 373.83594,137.01562 Z M 286.16406,21.546875 430,104.58984 393.83203,125.47266 250,42.425781 Z M 220,59.75 V 214.28516 L 86.164062,137.01562 Z M 66.164062,148.5625 210,231.60547 173.83594,252.48828 30,169.44531 Z m 10,70.62891 92.671878,53.5039 c 1.54687,0.89063 3.26953,1.33985 5,1.33985 1.72656,0 3.45312,-0.44922 5,-1.33985 L 220,248.92578 v 114.53906 l -20.53906,-11.85547 c -4.78125,-2.76171 -10.89844,-1.125 -13.66016,3.66016 -2.75781,4.78125 -1.12109,10.89844 3.66016,13.66016 L 220,386.55859 v 16.91016 L 76.164062,320.42187 Z M 422,440 c -38.59766,0 -70,-31.40234 -70,-70 0,-38.59766 31.40234,-70 70,-70 38.59766,0 70,31.40234 70,70 0,38.59766 -31.40234,70 -70,70 z m 0,0"
         inkscape:connector-curvature="0" />
      <path
         id="path1013"
         d="m 61.769531,84.710938 c 1.6875,0 3.402344,-0.429688 4.976563,-1.335938 l 0.234375,-0.132812 C 71.765625,80.488281 73.414062,74.375 70.660156,69.585938 67.90625,64.800781 61.792969,63.152344 57.003906,65.90625 l -0.230468,0.132812 c -4.789063,2.753907 -6.4375,8.871094 -3.683594,13.65625 1.851562,3.214844 5.214844,5.015626 8.679687,5.015626 z m 0,0"
         inkscape:connector-curvature="0" />
      <path
         id="path1015"
         d="m 174.57812,337.23828 -0.20703,-0.11719 c -4.78515,-2.76172 -10.89843,-1.11718 -13.65625,3.66797 -2.75781,4.78125 -1.11718,10.89844 3.66797,13.65625 l 0.20313,0.11719 c 1.57422,0.91016 3.29297,1.33984 4.98437,1.33984 3.46094,0 6.82031,-1.79687 8.67188,-5.00781 2.76172,-4.78125 1.11718,-10.89844 -3.66407,-13.65625 z m 0,0"
         inkscape:connector-curvature="0" />
    </g>
    <g
       id="g1075"
       transform="matrix(0.02785088,0,0,0.02583822,0.34077627,60.64778)"
       style="opacity:0.05">
      <path
         id="path1031"
         d="m 190,44.6875 c -5.51953,0 -10,4.476562 -10,10 v 0.226562 c 0,5.523438 4.48047,10 10,10 5.52344,0 10,-4.476562 10,-10 V 54.6875 c 0,-5.523438 -4.47656,-10 -10,-10 z m 0,0"
         inkscape:connector-curvature="0" />
      <path
         id="path1033"
         d="m 34.453125,465.15625 c 0,7.25391 5.9375,13.15625 13.230469,13.15625 H 332.32031 c 7.29297,0 13.22656,-5.90234 13.22656,-13.15625 V 137.96094 c 0,-7.25391 -5.93359,-13.15625 -13.22656,-13.15625 H 47.683594 c -7.296875,0 -13.230469,5.90234 -13.230469,13.15625 z m 20,-320.35156 H 325.54687 V 458.3125 H 54.453125 Z m 0,0"
         inkscape:connector-curvature="0" />
      <path
         id="path1035"
         d="m 117.38672,201.15234 -19.597658,19.59375 -6.261718,-6.26172 c -3.90625,-3.90234 -10.238282,-3.90234 -14.144532,0 -3.90625,3.90625 -3.90625,10.23829 0,14.14454 l 13.335938,13.33203 c 1.953125,1.95312 4.511719,2.92968 7.070312,2.92968 2.558598,0 5.117188,-0.97656 7.070318,-2.92968 l 26.66796,-26.66797 c 3.90235,-3.90235 3.90235,-10.23438 0,-14.14063 -3.90625,-3.90625 -10.23437,-3.90625 -14.14062,0 z m 0,0"
         inkscape:connector-curvature="0" />
      <path
         id="path1037"
         d="M 117.38672,281.15625 97.789062,300.75 91.527344,294.48828 c -3.90625,-3.90234 -10.238282,-3.90234 -14.144532,0 -3.90625,3.90625 -3.90625,10.23828 0,14.14453 l 13.335938,13.33203 c 1.953125,1.95313 4.511719,2.92969 7.070312,2.92969 2.558598,0 5.117188,-0.97656 7.070318,-2.92969 l 26.66796,-26.66797 c 3.90235,-3.90625 3.90235,-10.23828 0,-14.14453 -3.90625,-3.90234 -10.23437,-3.90234 -14.14062,0.004 z m 0,0"
         inkscape:connector-curvature="0" />
      <path
         id="path1039"
         d="m 117.38672,361.15625 -19.597658,19.59766 -6.261718,-6.26563 c -3.90625,-3.90234 -10.238282,-3.90234 -14.144532,0 -3.90625,3.90625 -3.90625,10.23828 0,14.14453 l 13.335938,13.33203 c 1.953125,1.95313 4.511719,2.92969 7.070312,2.92969 2.558598,0 5.117188,-0.97656 7.070318,-2.92969 l 26.66796,-26.66796 c 3.90235,-3.90235 3.90235,-10.23438 0,-14.14063 -3.90625,-3.90234 -10.23828,-3.90234 -14.14062,0 z m 0,0"
         inkscape:connector-curvature="0" />
      <path
         id="path1041"
         d="m 170.50391,231.55859 h 114.15234 c 5.51953,0 10,-4.48047 10,-10 0,-5.52343 -4.48047,-10 -10,-10 H 170.50391 c -5.52344,0 -10,4.47657 -10,10 0,5.51953 4.47656,10 10,10 z m 0,0"
         inkscape:connector-curvature="0" />
      <path
         id="path1043"
         d="m 170.50391,311.55859 h 114.15234 c 5.51953,0 10,-4.47656 10,-10 0,-5.52343 -4.48047,-10 -10,-10 H 170.50391 c -5.52344,0 -10,4.47657 -10,10 0,5.52344 4.47656,10 10,10 z m 0,0"
         inkscape:connector-curvature="0" />
      <path
         id="path1045"
         d="m 294.65625,381.5625 c 0,-5.52344 -4.48047,-10 -10,-10 H 170.50391 c -5.52344,0 -10,4.47656 -10,10 0,5.52344 4.47656,10 10,10 h 114.15234 c 5.51953,0 10,-4.47656 10,-10 z m 0,0"
         inkscape:connector-curvature="0" />
      <path
         id="path1047"
         d="m 305.54687,428.3125 h -41.03515 c -5.51953,0 -10,4.47656 -10,10 0,5.52344 4.48047,10 10,10 h 41.03515 c 5.52344,0 10,-4.47656 10,-10 0,-5.52344 -4.47656,-10 -10,-10 z m 0,0"
         inkscape:connector-curvature="0" />
      <path
         id="path1049"
         d="m 235.78125,428.3125 h -0.23438 c -5.52343,0 -10,4.47656 -10,10 0,5.52344 4.47657,10 10,10 h 0.23438 c 5.52344,0 10,-4.47656 10,-10 0,-5.52344 -4.47656,-10 -10,-10 z m 0,0"
         inkscape:connector-curvature="0" />
      <path
         id="path1051"
         d="M 354,60.417969 H 294.57422 C 293.46484,43.796875 279.38281,30.601562 262.22266,30.601562 H 238.5625 C 229.96875,12.265625 210.97656,0 190,0 169.02344,0 150.03125,12.265625 141.4375,30.601562 h -23.66016 c -17.882809,0 -32.429684,14.324219 -32.429684,31.933594 v 14.910156 c 0,17.605469 14.546875,31.929688 32.429684,31.929688 h 144.44922 c 16.86328,0 30.75391,-12.738281 32.28516,-28.957031 H 354 c 3.25391,0 6,2.75 6,6 V 486 c 0,3.25391 -2.74609,6 -6,6 H 26 c -3.253906,0 -6,-2.74609 -6,-6 V 86.417969 c 0,-3.25 2.746094,-6 6,-6 5.523438,0 10,-4.476563 10,-10 0,-5.523438 -4.476562,-10 -10,-10 -14.335938,0 -26,11.664062 -26,26 V 486 c 0,14.33594 11.664062,26 26,26 h 328 c 14.33594,0 26,-11.66406 26,-26 V 86.417969 c 0,-14.335938 -11.66406,-26 -26,-26 z m -79.34375,17.027343 c 0,6.578126 -5.57813,11.929688 -12.43359,11.929688 H 117.77734 c -6.85546,0 -12.43359,-5.351562 -12.43359,-11.929688 V 62.535156 c 0,-6.582031 5.57813,-11.933594 12.43359,-11.933594 h 30.52344 c 4.42969,0 8.32813,-2.910156 9.58985,-7.15625 C 161.98438,29.640625 175.1875,20 190,20 c 14.8125,0 28.01563,9.640625 32.11328,23.445312 1.25781,4.246094 5.15625,7.15625 9.58594,7.15625 h 30.52344 c 6.85547,0 12.43359,5.351563 12.43359,11.933594 z m 0,0"
         inkscape:connector-curvature="0" />
      <path
         id="path1053"
         d="M 54.730469,80.417969 H 55 c 5.523438,0 10,-4.476563 10,-10 0,-5.523438 -4.476562,-10 -10,-10 h -0.269531 c -5.523438,0 -10,4.476562 -10,10 0,5.523437 4.476562,10 10,10 z m 0,0"
         inkscape:connector-curvature="0" />
    </g>
    <g
       id="g1134"
       transform="matrix(0.02583822,0,0,0.02760893,36.762557,78.230235)"
       style="opacity:0.05">
      <g
         id="g946">
        <path
           inkscape:connector-curvature="0"
           d="m 443,357.49609 c -9.35938,0 -17.84375,3.80078 -24,9.94141 -6.15234,-6.14063 -14.64063,-9.94141 -24,-9.94141 -18.74609,0 -34,15.25391 -34,34 0,18.75 15.25391,34 34,34 9.35937,0 17.84766,-3.80078 24,-9.9375 6.15625,6.13672 14.64062,9.9375 24,9.9375 18.75,0 34,-15.25 34,-34 0,-18.74609 -15.25,-34 -34,-34 z m -48,48 c -7.71875,0 -14,-6.27734 -14,-14 0,-7.71875 6.28125,-14 14,-14 7.71484,0 13.99219,6.27344 14,13.98828 v 0.0117 0.0156 c -0.008,7.71094 -6.28516,13.98437 -14,13.98437 z m 48,0 c -7.71484,0 -13.99219,-6.27343 -14,-13.98437 0,-0.004 0,-0.008 0,-0.0156 0,-0.004 0,-0.008 0,-0.0117 0.008,-7.71484 6.28516,-13.98828 14,-13.98828 7.71875,0 14,6.28125 14,14 0,7.72266 -6.28125,14 -14,14 z m 0,0"
           id="path1099" />
        <path
           inkscape:connector-curvature="0"
           d="m 217,335.5 h 250 c 5.52344,0 10,-4.48047 10,-10 v -35 c 0,-5.52344 -4.47656,-10 -10,-10 H 217 c -5.52344,0 -10,4.47656 -10,10 v 35 c 0,5.51953 4.47656,10 10,10 z m 10,-35 h 230 v 15 H 227 Z m 0,0"
           id="path1101" />
        <path
           inkscape:connector-curvature="0"
           d="M 482,240.49609 H 424.5 V 26.5 c 0,-14.335938 -11.66406,-26 -26,-26 H 116 c -5.52344,0 -10,4.476562 -10,10 0,5.523438 4.47656,10 10,10 h 28.5 v 50 c 0,3.464844 1.79297,6.683594 4.74219,8.503906 2.94922,1.824219 6.63281,1.988282 9.73047,0.4375 L 174.5,71.679688 l 15.52734,7.761718 c 2.81641,1.410156 6.12891,1.410156 8.94532,0 L 214.5,71.679688 l 15.52734,7.761718 c 2.81641,1.410156 6.12891,1.410156 8.94532,0 L 254.5,71.679688 l 15.52734,7.761718 c 1.41016,0.707032 2.94141,1.058594 4.46875,1.058594 1.83203,0 3.65235,-0.5 5.26172,-1.496094 C 282.70312,77.183594 284.5,73.964844 284.5,70.5 v -50 h 114 c 3.25,0 6,2.746094 6,6 v 213.99609 h -180 v -13 c 0,-12.1289 -9.87109,-22 -22,-22 h -148 c -12.128906,0 -22,9.8711 -22,22 v 56 c 0,12.13282 9.871094,22 22,22 H 172 V 315.5 H 26 c -3.253906,0 -6,-2.75 -6,-6 v -283 c 0,-3.253906 2.746094,-6 6,-6 h 21.035156 c 5.523438,0 10,-4.476562 10,-10 0,-5.523438 -4.476562,-10 -10,-10 H 26 C 11.664062,0.5 0,12.164062 0,26.5 v 282.99609 c 0,14.33594 11.664062,26 26,26 h 146 v 95 c 0,16.54297 13.45703,30 30,30 h 280 c 16.54297,0 30,-13.45703 30,-30 v -160 c 0,-16.53906 -13.45703,-30 -30,-30 z M 264.5,54.320312 258.97266,51.554688 c -2.81641,-1.40625 -6.12891,-1.40625 -8.94532,0 L 234.5,59.320312 218.97266,51.554688 c -2.8125,-1.40625 -6.12891,-1.40625 -8.94141,0 l -15.52734,7.765624 -15.53125,-7.765624 c -2.8125,-1.40625 -6.12891,-1.40625 -8.94141,0 l -5.52734,2.765624 V 20.5 h 100 V 54.320312 Z M 54.5,285.49609 c -1.082031,0 -2,-0.91406 -2,-2 v -56 c 0,-1.08203 0.917969,-2 2,-2 h 148 c 1.08594,0 2,0.91797 2,2 v 13 H 202 c -16.54297,0 -30,13.46094 -30,30 v 15 z m 437.5,145 c 0,5.51563 -4.48438,10 -10,10 H 202 c -5.51172,0 -10,-4.48437 -10,-10 v -160 c 0,-5.51172 4.48828,-10 10,-10 h 280 c 5.51562,0 10,4.48828 10,10 z m 0,0"
           id="path1103" />
        <path
           inkscape:connector-curvature="0"
           d="M 312.07812,375.49219 H 217 c -5.52344,0 -10,4.48047 -10,10 0,5.52343 4.47656,10 10,10 h 95.07812 c 5.52344,0 10,-4.47657 10,-10 0,-5.51953 -4.47656,-10 -10,-10 z m 0,0"
           id="path1105" />
        <path
           inkscape:connector-curvature="0"
           d="m 242.3125,405.49609 h -0.23828 c -5.51953,0 -10,4.47657 -10,10 0,5.52344 4.48047,10 10,10 h 0.23828 c 5.52344,0 10,-4.47656 10,-10 0,-5.52343 -4.47656,-10 -10,-10 z m 0,0"
           id="path1107" />
        <path
           inkscape:connector-curvature="0"
           d="m 312.07812,405.49609 h -41.03515 c -5.52344,0 -10,4.47657 -10,10 0,5.52344 4.47656,10 10,10 h 41.03515 c 5.52344,0 10,-4.47656 10,-10 0,-5.52343 -4.47656,-10 -10,-10 z m 0,0"
           id="path1109" />
        <path
           inkscape:connector-curvature="0"
           d="m 54.5,175.49609 c -5.519531,0 -10,4.47657 -10,10 0,5.52344 4.480469,10 10,10 H 91 c 5.523438,0 10,-4.47656 10,-10 0,-5.52343 -4.476562,-10 -10,-10 z m 0,0"
           id="path1111" />
        <path
           inkscape:connector-curvature="0"
           d="m 137.5,155.49609 c 0,-5.52343 -4.47656,-10 -10,-10 h -73 c -5.519531,0 -10,4.47657 -10,10 0,5.52344 4.480469,10 10,10 h 73 c 5.52344,0 10,-4.47656 10,-10 z m 0,0"
           id="path1113" />
        <path
           inkscape:connector-curvature="0"
           d="m 75.765625,20.5 h 0.269531 c 5.523438,0 10,-4.476562 10,-10 0,-5.523438 -4.476562,-10 -10,-10 h -0.269531 c -5.523437,0 -10,4.476562 -10,10 0,5.523438 4.476563,10 10,10 z m 0,0"
           id="path1115" />
      </g>
    </g>
    <g
       id="g1239"
       transform="matrix(0.02481802,0,0,0.02583822,36.762557,50.460458)"
       style="opacity:0.05">
      <path
         id="path1195"
         d="m 150.44922,20 h 0.26953 c 5.52344,0 10,-4.476562 10,-10 0,-5.523438 -4.47656,-10 -10,-10 h -0.26953 c -5.51953,0 -10,4.476562 -10,10 0,5.523438 4.48047,10 10,10 z m 0,0"
         inkscape:connector-curvature="0" />
      <path
         id="path1197"
         d="m 396.4375,0 h -205.75 c -5.52344,0 -10,4.476562 -10,10 0,5.523438 4.47656,10 10,10 h 205.75 c 5.51562,0 10,4.484375 10,10 v 366.4375 c 0,5.51172 -4.48438,10 -10,10 H 355.75391 V 183.92187 c 0,-0.11328 -0.0117,-0.21875 -0.0156,-0.32812 -0.004,-0.12109 -0.0117,-0.24219 -0.0195,-0.35938 -0.0273,-0.41406 -0.0742,-0.82031 -0.14844,-1.21875 -0.004,-0.0156 -0.008,-0.0391 -0.0117,-0.0586 -0.0859,-0.4375 -0.20703,-0.86328 -0.35156,-1.28125 -0.0273,-0.0781 -0.0586,-0.16016 -0.0859,-0.23828 -0.14843,-0.39063 -0.3125,-0.77344 -0.5039,-1.13672 -0.0156,-0.0312 -0.0234,-0.0586 -0.0391,-0.0859 -0.20704,-0.38672 -0.44532,-0.75781 -0.69922,-1.11328 -0.0586,-0.082 -0.1211,-0.16015 -0.1836,-0.24219 -0.26562,-0.34765 -0.55078,-0.6875 -0.85937,-1 -0.004,-0.004 -0.008,-0.008 -0.0117,-0.0117 L 264.46875,88.492188 c -0.004,-0.0039 -0.008,-0.0078 -0.0117,-0.01172 -0.3125,-0.308594 -0.64844,-0.589844 -0.99609,-0.855469 -0.082,-0.06641 -0.16407,-0.128906 -0.25,-0.1875 -0.35547,-0.253906 -0.71875,-0.488281 -1.10547,-0.695312 -0.0312,-0.01563 -0.0664,-0.03125 -0.10156,-0.04688 -0.35938,-0.1875 -0.73438,-0.351562 -1.11719,-0.492187 -0.082,-0.03125 -0.16797,-0.0625 -0.25,-0.09375 -0.41406,-0.140625 -0.83985,-0.261719 -1.27735,-0.351563 -0.0195,-0.0039 -0.043,-0.0039 -0.0664,-0.0078 -0.39453,-0.07813 -0.80078,-0.121094 -1.20703,-0.152344 -0.1211,-0.0078 -0.23828,-0.01172 -0.35938,-0.01563 -0.10937,-0.0039 -0.21875,-0.01953 -0.32812,-0.01953 H 90.683594 V 30 c 0,-5.515625 4.488281,-10 9.999996,-10 h 21.03516 c 5.52344,0 10,-4.476562 10,-10 0,-5.523438 -4.47656,-10 -10,-10 H 100.68359 C 84.144531,0 70.683594,13.457031 70.683594,30 V 85.5625 H 30 c -16.542969,0 -30,13.460938 -30,30 V 482 c 0,16.54297 13.457031,30 30,30 h 295.75391 c 16.54296,0 30,-13.45703 30,-30 v -55.5625 h 40.68359 c 16.54297,0 30,-13.45703 30,-30 V 30 c 0,-16.542969 -13.45703,-30 -30,-30 z m -129.03906,119.70703 54.21484,54.21484 h -44.21484 c -5.51563,0 -10,-4.48828 -10,-10 z M 335.75391,482 c 0,5.51562 -4.48438,10 -10,10 H 30 c -5.511719,0 -10,-4.48438 -10,-10 V 115.5625 c 0,-5.51172 4.488281,-10 10,-10 h 217.39844 v 58.35937 c 0,16.54297 13.45703,30 30,30 h 58.35547 z m 0,0"
         inkscape:connector-curvature="0" />
      <path
         id="path1199"
         d="m 110.70703,236.02734 -19.597655,19.59375 -6.261719,-6.26172 c -3.902344,-3.90625 -10.234375,-3.90625 -14.140625,0 -3.90625,3.90625 -3.90625,10.23829 0,14.14063 l 13.332031,13.33594 c 1.875,1.875 4.417969,2.92578 7.070313,2.92578 2.652344,0 5.195313,-1.05078 7.070313,-2.92578 l 26.667972,-26.66797 c 3.90625,-3.90625 3.90625,-10.23828 0,-14.14453 -3.90235,-3.90235 -10.23438,-3.90235 -14.14063,0.004 z m 0,0"
         inkscape:connector-curvature="0" />
      <path
         id="path1201"
         d="M 110.70703,316.02734 91.109375,335.625 84.847656,329.36328 c -3.902344,-3.90625 -10.234375,-3.90625 -14.140625,0 -3.90625,3.90234 -3.90625,10.23438 0,14.14063 l 13.332031,13.33203 c 1.875,1.875 4.417969,2.92968 7.070313,2.92968 2.652344,0 5.195313,-1.05468 7.070313,-2.92968 l 26.667972,-26.66797 c 3.90625,-3.90235 3.90625,-10.23438 0,-14.14063 -3.90235,-3.90625 -10.23438,-3.90625 -14.14063,0 z m 0,0"
         inkscape:connector-curvature="0" />
      <path
         id="path1203"
         d="M 110.70703,396.03125 91.109375,415.625 84.847656,409.36328 c -3.90625,-3.90234 -10.234375,-3.90234 -14.140625,0 -3.90625,3.90625 -3.90625,10.23828 0,14.14453 l 13.332031,13.33203 c 1.953126,1.95313 4.511719,2.92969 7.070313,2.92969 2.558594,0 5.117187,-0.97656 7.070313,-2.92969 l 26.667972,-26.66797 c 3.90625,-3.90234 3.90625,-10.23437 0,-14.14062 -3.90235,-3.90625 -10.23438,-3.90625 -14.14063,0 z m 0,0"
         inkscape:connector-curvature="0" />
      <path
         id="path1205"
         d="m 163.82422,266.42969 h 114.15234 c 5.52344,0 10,-4.47657 10,-10 0,-5.52344 -4.47656,-10 -10,-10 H 163.82422 c -5.51953,0 -10,4.47656 -10,10 0,5.52343 4.48047,10 10,10 z m 0,0"
         inkscape:connector-curvature="0" />
      <path
         id="path1207"
         d="m 163.82422,346.43359 h 114.15234 c 5.52344,0 10,-4.47656 10,-10 0,-5.52343 -4.47656,-10 -10,-10 H 163.82422 c -5.51953,0 -10,4.47657 -10,10 0,5.52344 4.48047,10 10,10 z m 0,0"
         inkscape:connector-curvature="0" />
      <path
         id="path1209"
         d="m 287.97656,416.4375 c 0,-5.52344 -4.47656,-10 -10,-10 H 163.82422 c -5.51953,0 -10,4.47656 -10,10 0,5.51953 4.48047,10 10,10 h 114.15234 c 5.52344,0 10,-4.48047 10,-10 z m 0,0"
         inkscape:connector-curvature="0" />
      <path
         id="path1211"
         d="m 77.777344,193.92187 h 39.999996 c 5.52344,0 10,-4.47656 10,-10 0,-5.52343 -4.47656,-10 -10,-10 H 77.777344 c -5.519532,0 -10,4.47657 -10,10 0,5.52344 4.476562,10 10,10 z m 0,0"
         inkscape:connector-curvature="0" />
      <path
         id="path1213"
         d="m 163.82422,193.92187 h 40 c 5.52344,0 10,-4.47656 10,-10 0,-5.52343 -4.47656,-10 -10,-10 h -40 c -5.51953,0 -10,4.47657 -10,10 0,5.52344 4.48047,10 10,10 z m 0,0"
         inkscape:connector-curvature="0" />
      <path
         id="path1215"
         d="m 245.98828,462 h -0.23437 c -5.52344,0 -10,4.47656 -10,10 0,5.52344 4.47656,10 10,10 h 0.23437 c 5.52344,0 10,-4.47656 10,-10 0,-5.52344 -4.47656,-10 -10,-10 z m 0,0"
         inkscape:connector-curvature="0" />
      <path
         id="path1217"
         d="m 315.75391,461.99609 h -41.03516 c -5.52344,0 -10,4.47657 -10,10 0,5.52344 4.47656,10 10,10 h 41.03516 c 5.52343,0 10,-4.47656 10,-10 0,-5.52343 -4.47657,-10 -10,-10 z m 0,0"
         inkscape:connector-curvature="0" />
    </g>
    <g
       id="g1258"
       transform="matrix(0.02583822,0,0,0.0264586,89.038363,50.701274)"
       style="opacity:0.05">
      <path
         id="path1241"
         d="m 87.769531,117.13281 c 1.699219,0 3.417969,-0.42968 4.992188,-1.33984 l 0.234375,-0.13281 c 4.78125,-2.76172 6.417968,-8.87891 3.660156,-13.66407 -2.761719,-4.781246 -8.878906,-6.417965 -13.664062,-3.656246 l -0.230469,0.132812 c -4.785157,2.761724 -6.421875,8.878904 -3.660157,13.660154 1.851563,3.20703 5.214844,5 8.667969,5 z m 0,0"
         inkscape:connector-curvature="0" />
      <path
         id="path1243"
         d="m 486,427.99609 h -40 v -256.7539 l 25,14.43359 c 1.54687,0.89453 3.27344,1.33985 5,1.33985 1.72656,0 3.45312,-0.44532 5,-1.33985 3.09375,-1.78515 5,-5.08594 5,-8.66015 v -40 c 0,-3.57032 -1.90625,-6.8711 -5,-8.66016 L 261.00391,1.339844 c -3.09766,-1.785156 -6.90625,-1.785156 -10,0 L 117.60547,78.355469 c -4.78125,2.761719 -6.42188,8.878906 -3.66016,13.660156 2.76172,4.785156 8.87891,6.421875 13.66016,3.660156 L 256.00391,21.546875 466,142.78906 v 16.90625 L 261.00391,41.339844 c -3.09766,-1.785156 -6.90625,-1.785156 -10,0 L 46.003906,159.69531 v -16.90625 l 21.878906,-12.6289 c 4.78125,-2.76172 6.421876,-8.87891 3.660157,-13.66016 -2.761719,-4.78516 -8.878907,-6.42187 -13.660157,-3.66016 l -26.878906,15.51563 c -3.09375,1.78906 -5,5.08984 -5,8.66016 v 40 c 0,3.57421 1.90625,6.875 5,8.66015 3.09375,1.78906 6.90625,1.78906 10,0 l 25,-14.43359 v 256.7539 H 26 c -14.335938,0 -26,11.66407 -26,26 v 16 c 0,5.52344 4.476562,10 10,10 h 385.16406 c 5.51953,0 10,-4.47656 10,-10 0,-5.52343 -4.48047,-10 -10,-10 H 20 v -6 c 0,-3.25 2.746094,-6 6,-6 h 460 c 3.25391,0 6,2.75 6,6 v 6 h -27.875 c -5.51953,0 -10,4.47657 -10,10 0,5.52344 4.48047,10 10,10 H 502 c 5.52344,0 10,-4.47656 10,-10 v -16 c 0,-14.33593 -11.66406,-26 -26,-26 z M 406,200 h 20 v 227.99609 h -20 z m 20,-20 H 326 v -78.03906 l 100,57.73437 z M 256.00391,61.546875 l 50,28.867187 V 180 h -100 V 90.417969 Z m -70,40.414065 V 180 H 86.003906 V 159.69531 Z M 86.003906,200 H 106.00391 V 427.99609 H 86.003906 Z m 40.000004,0 H 386 V 427.99609 H 374 V 222 c 0,-5.52344 -4.47656,-10 -10,-10 h -72 c -5.51953,0 -10,4.47656 -10,10 v 61.99609 h -61.99609 c -5.52344,0 -10,4.48047 -10,10 v 62 h -62 c -5.52344,0 -10,4.47657 -10,10 v 62 h -12 z M 302,355.99609 V 304 h 16 c 0,5.52344 4.48047,10 10,10 5.52344,0 10,-4.47656 10,-10 h 16 v 51.99609 z m -71.99609,0 V 304 h 16 c 0,5.52344 4.47656,10 10,10 C 261.52344,314 266,309.52344 266,304 h 16 v 51.99609 z m 98,-113.99609 c 5.51953,0 10,-4.48047 10,-10 H 354 v 51.99609 H 302 V 232 h 16.00391 c 0,5.51953 4.47656,10 10,10 z m -170,133.99609 h 16 c 0,5.52344 4.47656,10 10,10 5.52343,0 10,-4.47656 10,-10 h 16 v 52 h -52 z m 72,0 h 16 c 0,5.52344 4.47656,10 10,10 5.51953,0 9.99609,-4.47656 9.99609,-10 h 16 v 52 h -51.99609 z m 71.99609,52 v -52 h 16 c 0,5.52344 4.48047,10 10,10 5.52344,0 10,-4.47656 10,-10 h 16 v 52 z m 0,0"
         inkscape:connector-curvature="0" />
      <path
         id="path1245"
         d="M 435.39453,459.99609 H 435.125 c -5.51953,0 -9.99609,4.47657 -9.99609,10 0,5.52344 4.47656,10 9.99609,10 h 0.26953 c 5.52344,0 10,-4.47656 10,-10 0,-5.52343 -4.47656,-10 -10,-10 z m 0,0"
         inkscape:connector-curvature="0" />
    </g>
    <g
       id="g1459"
       transform="matrix(0.02588337,0,0,0.02583841,91.083495,76.647532)"
       style="opacity:0.05">
      <path
         id="path1442"
         d="m 455.49609,241.99609 -41.16406,-23.76562 41.16406,-23.76563 c 3.09375,-1.78906 5,-5.08984 5,-8.66015 0,-3.57422 -1.90625,-6.875 -5,-8.66016 L 291.66406,82.550781 c -3.09375,-1.785156 -6.90625,-1.785156 -10,0 L 262.49609,93.617188 V 32 c 0,-17.644531 -14.35156,-32 -31.99609,-32 -17.64844,0 -32,14.355469 -32,32 V 93.617188 L 179.33203,82.550781 c -3.09375,-1.785156 -6.90625,-1.785156 -10,0 L 92.101562,127.14063 c -4.78125,2.76171 -6.421874,8.8789 -3.660156,13.66015 1.851563,3.21094 5.214844,5.00391 8.667969,5.00391 1.695313,0 3.417965,-0.4336 4.992185,-1.34375 l 35.90625,-20.73047 c -3.63281,5.28125 -5.59765,11.54297 -5.59765,18.11719 0,8.22265 3.0664,15.94921 8.64062,21.88671 L 66.664062,206.67969 30.5,185.80078 42.375,178.94531 c 4.785156,-2.76172 6.421875,-8.8789 3.660156,-13.66015 C 43.273438,160.5 37.160156,158.86328 32.375,161.625 L 5.5,177.14062 c -3.09375,1.78907 -5,5.08985 -5,8.66016 0,3.57422 1.90625,6.875 5,8.66016 L 46.664062,218.23047 5.5,241.99609 c -3.09375,1.78516 -5,5.08594 -5,8.66016 0,3.57031 1.90625,6.87109 5,8.66016 l 51.164062,29.53906 v 118.55078 c 0,3.57422 1.90625,6.875 5,8.66016 L 225.5,510.65625 c 0.0234,0.0156 0.0508,0.0273 0.0742,0.0391 0.35547,0.20313 0.72266,0.38672 1.10156,0.54297 0.0195,0.008 0.043,0.0156 0.0664,0.0234 0.34375,0.14062 0.69922,0.25781 1.0625,0.35937 0.0977,0.0274 0.19531,0.0508 0.29297,0.0742 0.29687,0.0742 0.59765,0.13281 0.90625,0.17969 0.10156,0.0156 0.20312,0.0352 0.30468,0.0469 0.39063,0.0469 0.78516,0.0742 1.19141,0.0742 0.40234,0 0.79688,-0.0273 1.1875,-0.0742 0.10156,-0.0117 0.20313,-0.0312 0.30469,-0.0469 0.30859,-0.0469 0.60937,-0.10547 0.90625,-0.17969 0.0977,-0.0234 0.19531,-0.0469 0.29297,-0.0742 0.36328,-0.10156 0.71875,-0.21875 1.0664,-0.35937 0.0195,-0.008 0.0391,-0.0156 0.0625,-0.0234 0.37891,-0.15625 0.7461,-0.33984 1.10157,-0.54297 0.0234,-0.0117 0.0508,-0.0234 0.0781,-0.0391 l 163.83203,-94.58984 c 3.09375,-1.78516 5,-5.08594 5,-8.66016 V 288.85547 l 51.16406,-29.53906 c 3.09375,-1.78516 5,-5.08594 5,-8.66016 0,-3.57031 -1.90625,-6.875 -5,-8.66016 z m -247.625,-11.40625 c 3.61329,3.61328 7.92969,6.25 12.62891,7.80078 V 295.5 L 86.664062,218.23047 155.67188,178.38672 Z M 240.5,238.39062 c 4.69531,-1.55078 9.01172,-4.1875 12.625,-7.80078 l 52.19922,-52.20312 69.00781,39.84375 L 240.5,295.5 Z m 153.83203,-31.70703 -74.38672,-42.94922 c 5.57422,-5.9375 8.64063,-13.66406 8.64063,-21.88671 0,-6.57422 -1.96485,-12.83204 -5.60156,-18.11328 l 107.51171,62.07031 z m -107.66797,-103.92187 12.50782,7.22266 c -0.84766,-0.0664 -1.69922,-0.10938 -2.5586,-0.10938 -8.56641,0 -16.60156,3.32031 -22.62891,9.34375 l -11.48828,11.48828 V 116.71094 Z M 218.5,32 c 0,-6.617188 5.38281,-12 12,-12 6.61328,0 12,5.382812 12,12 v 122.84766 c 0,4.04687 2.43359,7.6914 6.17188,9.24218 3.73437,1.54688 8.03906,0.69141 10.89843,-2.16797 L 288.125,133.36328 c 4.67969,-4.67969 12.29297,-4.67969 16.97266,0 2.25,2.25 3.48828,5.26172 3.48828,8.48438 0,3.22265 -1.23828,6.23437 -3.48828,8.48437 l -66.11328,66.11328 C 236.69141,218.73828 233.67969,220 230.5,220 c -3.18359,0 -6.19531,-1.26563 -8.48437,-3.55469 l -66.11719,-66.11328 c -2.25,-2.25 -3.48828,-5.26172 -3.48828,-8.48437 0,-3.22266 1.23828,-6.23438 3.48828,-8.48438 2.25,-2.25 5.26172,-3.48828 8.48437,-3.48828 3.22266,0 6.23828,1.23828 8.48438,3.48828 l 28.55859,28.55859 c 2.85938,2.85938 7.16016,3.71485 10.89844,2.16407 3.73828,-1.54688 6.17187,-5.19141 6.17187,-9.23828 V 32 Z M 174.33203,102.76172 198.5,116.71094 v 13.99609 l -11.48828,-11.48828 c -6.02734,-6.02344 -14.0625,-9.34375 -22.62891,-9.34375 -0.85937,0 -1.71093,0.043 -2.55859,0.10938 z M 66.664062,229.77734 210.5,312.82031 174.33203,333.69922 30.5,250.65625 Z m 10,70.625 92.667968,53.50391 c 1.54688,0.89453 3.27344,1.33984 5,1.33984 1.72656,0 3.45313,-0.44531 5,-1.33984 L 220.5,330.14062 V 484.67969 L 76.664062,401.63672 Z m 307.667968,61.23438 -30.53906,17.6289 c -4.78125,2.76172 -6.42188,8.87891 -3.66016,13.66016 1.85547,3.20703 5.21485,5 8.67188,5 1.69531,0 3.41406,-0.42969 4.98828,-1.33984 l 20.53906,-11.85547 v 16.90625 L 240.5,484.67969 V 330.14063 l 41.16406,23.76562 c 1.54688,0.89453 3.27344,1.33984 5,1.33984 1.72657,0 3.45313,-0.44531 5,-1.33984 l 92.66797,-53.5 z m -97.66797,-27.9375 -36.16797,-20.87891 143.83594,-83.04297 36.16406,20.87891 z m 0,0"
         inkscape:connector-curvature="0" />
      <path
         id="path1444"
         d="m 62.265625,165.92187 c 1.695313,0 3.414063,-0.42968 4.984375,-1.33593 l 0.234375,-0.13672 c 4.785156,-2.75781 6.425781,-8.8711 3.667969,-13.65625 -2.757813,-4.78516 -8.871094,-6.42578 -13.65625,-3.66797 l -0.234375,0.13281 c -4.785157,2.75781 -6.425781,8.875 -3.667969,13.65625 1.851562,3.21094 5.214844,5.00781 8.671875,5.00781 z m 0,0"
         inkscape:connector-curvature="0" />
      <path
         id="path1446"
         d="m 333.71875,412.41406 c 1.70312,0 3.42578,-0.43359 5.00391,-1.34765 l 0.20312,-0.11719 c 4.77734,-2.76953 6.41016,-8.88672 3.64453,-13.66406 -2.76953,-4.78125 -8.88281,-6.41407 -13.66406,-3.64453 l -0.20703,0.11718 c -4.77735,2.76563 -6.41016,8.88282 -3.64063,13.66407 1.85157,3.20312 5.21094,4.99218 8.66016,4.99218 z m 0,0"
         inkscape:connector-curvature="0" />
    </g>
    <path
       inkscape:connector-curvature="0"
       d="M 97.349545,233.87157 H 96.28927 c -0.142615,0 -0.258382,0.10815 -0.258382,0.24158 0,0.13343 0.115767,0.24158 0.258382,0.24158 h 1.060275 c 0.142716,0 0.258382,-0.10815 0.258382,-0.24158 0,-0.13343 -0.115666,-0.24158 -0.258382,-0.24158 z m 0,0"
       id="path1461"
       style="stroke-width:0.02498379" />
    <path
       inkscape:connector-curvature="0"
       d="m 95.546926,233.87167 h -0.0061 c -0.142716,0 -0.258382,0.10814 -0.258382,0.24157 0,0.13344 0.115666,0.24158 0.258382,0.24158 h 0.0061 c 0.142716,0 0.258382,-0.10814 0.258382,-0.24158 0,-0.13343 -0.115666,-0.24157 -0.258382,-0.24157 z m 0,0"
       id="path1463"
       style="stroke-width:0.02498379" />
    <path
       inkscape:connector-curvature="0"
       d="m 155.30288,59.881192 c 0.14272,0 0.25839,-0.108144 0.25839,-0.241576 v -0.773044 c 0,-0.133434 -0.11567,-0.241576 -0.25839,-0.241576 h -1.041 c 0.0147,-0.05266 0.0227,-0.107861 0.0227,-0.164762 v -3.149172 c 0,-0.153722 -0.0576,-0.295082 -0.15371,-0.406338 0.096,-0.111164 0.15371,-0.252524 0.15371,-0.406338 v -3.149172 c 0,-0.357269 -0.31086,-0.647914 -0.69299,-0.647914 h -4.21031 c -0.16442,0 -0.31561,0.05398 -0.43461,0.143718 -0.119,-0.08974 -0.27019,-0.143718 -0.43461,-0.143718 h -2.64841 c -0.14272,0 -0.25839,0.108142 -0.25839,0.241576 v 1.219015 c 0,0.0838 0.0463,0.161554 0.12253,0.205528 0.0415,0.02397 0.0886,0.03605 0.13586,0.03605 0.0395,0 0.0791,-0.0084 0.11556,-0.02548 l 0.42774,-0.19996 0.42765,0.19996 c 0.0801,0.03746 0.17521,0.0334 0.25141,-0.01057 0.0762,-0.04407 0.12253,-0.121827 0.12253,-0.205528 v -0.977439 h 1.30352 c 0.0956,0 0.17623,0.07549 0.17623,0.164762 v 3.149172 c 0,0.08927 -0.0807,0.164762 -0.17623,0.164762 h -4.21032 c -0.0956,0 -0.17622,-0.07549 -0.17622,-0.164762 v -3.149172 c 0,-0.0519 0.0259,-0.09993 0.0713,-0.13183 0.006,-0.0043 0.0128,-0.0084 0.0196,-0.01198 0.12434,-0.06549 0.16825,-0.212795 0.0982,-0.329054 -0.07,-0.116258 -0.2276,-0.157403 -0.35194,-0.09182 -0.0265,0.01397 -0.0523,0.02972 -0.0766,0.04681 -0.1736,0.122203 -0.27725,0.315747 -0.27725,0.517878 v 3.149172 c 0,0.15372 0.0577,0.29508 0.15371,0.406338 -0.096,0.111256 -0.15371,0.252522 -0.15371,0.406338 v 3.149172 c 0,0.0569 0.008,0.112106 0.0227,0.164762 h -1.04099 c -0.14272,0 -0.25838,0.108142 -0.25838,0.241576 v 0.773044 c 0,0.133432 0.11566,0.241576 0.25838,0.241576 h 0.36173 v 0.676413 h -0.36173 c -0.14272,0 -0.25838,0.108141 -0.25838,0.241576 v 0.773043 c 0,0.133433 0.11566,0.241577 0.25838,0.241577 h 12.7124 c 0.14272,0 0.25839,-0.108144 0.25839,-0.241577 v -0.773043 c 0,-0.133435 -0.11567,-0.241576 -0.25839,-0.241576 h -0.36173 v -0.676413 z m -8.61109,-8.110164 -0.16936,-0.07917 c -0.0727,-0.03397 -0.15836,-0.03397 -0.23103,0 l -0.16936,0.07917 v -0.586576 h 0.56975 z m 2.51327,6.689206 v -3.149172 c 0,-0.08927 0.0807,-0.164762 0.17623,-0.164762 h 1.30351 v 0.977439 c 0,0.0838 0.0463,0.161554 0.12253,0.205528 0.0762,0.04407 0.17138,0.04803 0.25142,0.01057 l 0.42764,-0.19996 0.42775,0.19996 c 0.0365,0.01708 0.0761,0.02557 0.11557,0.02557 0.0472,0 0.0944,-0.01217 0.13585,-0.03614 0.0762,-0.04397 0.12253,-0.12173 0.12253,-0.205434 V 55.1463 h 1.30351 c 0.0955,0 0.17623,0.07549 0.17623,0.164762 v 3.149172 c 0,0.08936 -0.0807,0.164762 -0.17623,0.164762 h -4.21031 c -0.0955,0 -0.17623,-0.0754 -0.17623,-0.164762 z m 2.56626,-3.313934 v 0.586576 l -0.16936,-0.07917 c -0.0727,-0.03397 -0.15836,-0.03397 -0.23103,0 l -0.16936,0.07917 V 55.1463 Z m -0.56975,-3.961848 h 0.56985 v 0.586576 l -0.16936,-0.07917 c -0.0728,-0.03397 -0.15836,-0.03397 -0.23113,0 l -0.16936,0.07917 z m -1.82028,0 h 1.30351 v 0.977439 c 0,0.0838 0.0463,0.161554 0.12253,0.205528 0.0415,0.02397 0.0886,0.03605 0.13586,0.03605 0.0395,0 0.0791,-0.0084 0.11556,-0.02548 l 0.42775,-0.19996 0.42764,0.19996 c 0.0801,0.03737 0.17522,0.0334 0.25142,-0.01057 0.0762,-0.04407 0.12253,-0.121827 0.12253,-0.205528 v -0.977439 h 1.30351 c 0.0955,0 0.17623,0.07549 0.17623,0.164762 v 3.149172 c 0,0.08927 -0.0807,0.164762 -0.17623,0.164762 h -4.21031 c -0.0955,0 -0.17623,-0.07549 -0.17623,-0.164762 v -3.149172 c 0,-0.08927 0.0807,-0.164762 0.17623,-0.164762 z m -3.25925,3.961848 h 0.56975 v 0.586576 l -0.16936,-0.07917 c -0.0727,-0.03397 -0.15836,-0.03397 -0.23103,0 l -0.16936,0.07917 z m -1.99651,3.313934 v -3.149172 c 0,-0.08927 0.0807,-0.164762 0.17622,-0.164762 h 1.30352 v 0.977439 c 0,0.0838 0.0463,0.161554 0.12253,0.205528 0.0762,0.04397 0.17128,0.04803 0.25142,0.01057 l 0.42764,-0.19996 0.42775,0.19996 c 0.0365,0.01708 0.0761,0.02557 0.11556,0.02557 0.0472,0 0.0944,-0.01217 0.13585,-0.03614 0.0762,-0.04397 0.12253,-0.12173 0.12253,-0.205434 V 55.1463 h 1.30352 c 0.0956,0 0.17623,0.07549 0.17623,0.164762 v 3.149172 c 0,0.08936 -0.0807,0.164762 -0.17623,0.164762 h -4.21032 c -0.0956,0 -0.17622,-0.0754 -0.17622,-0.164762 z m -1.27667,0.647914 h 12.19564 v 0.289892 h -12.19564 z m 6.97632,1.449457 v -0.676413 h 3.35897 v 0.676413 z m -5.11597,0 v -0.676413 h 3.35897 v 0.676413 z m 3.87574,-0.676413 h 0.72347 v 0.676413 h -0.72347 z m -5.11597,0 h 0.72347 v 0.676413 h -0.72347 z m 11.57552,1.449456 h -12.19564 v -0.289891 h 12.19564 z m -0.62012,-0.773043 h -0.72347 v -0.676413 h 0.72347 z m 0,0"
       id="path1465"
       style="opacity:0.05;stroke-width:0.02498379" />
    <path
       inkscape:connector-curvature="0"
       d="m 88.922551,227.15585 h 0.007 c 0.142716,0 0.258383,-0.10814 0.258383,-0.24157 0,-0.13344 -0.115667,-0.24158 -0.258383,-0.24158 h -0.007 c -0.142716,0 -0.258382,0.10814 -0.258382,0.24158 0,0.13343 0.115666,0.24157 0.258382,0.24157 z m 0,0"
       id="path1467"
       style="stroke-width:0.02498379" />
    <path
       id="path1527"
       d="m 144.36094,136.5682 c -0.1382,-0.0214 -0.26721,0.0756 -0.28826,0.2166 l -0.001,0.009 c -0.0211,0.1411 0.0739,0.27281 0.21215,0.29431 0.0129,0.002 0.0257,0.003 0.0384,0.003 0.12297,0 0.23083,-0.0917 0.24991,-0.21953 l 0.001,-0.009 c 0.0211,-0.1411 -0.0739,-0.27282 -0.21215,-0.29432 z m 0,0"
       inkscape:connector-curvature="0"
       style="stroke-width:0.02557143" />
    <path
       id="path1529"
       d="m 135.87179,132.08396 c 0.0597,0 0.11962,-0.0215 0.16786,-0.0652 l 0.005,-0.005 c 0.10449,-0.0947 0.11408,-0.25797 0.0213,-0.36476 -0.0928,-0.10668 -0.25277,-0.11647 -0.35726,-0.0217 l -0.005,0.005 c -0.10459,0.0947 -0.11418,0.25797 -0.0214,0.36476 0.05,0.0575 0.11952,0.0869 0.18941,0.0869 z m 0,0"
       inkscape:connector-curvature="0"
       style="stroke-width:0.02557143" />
    <path
       id="path1531"
       d="m 155.55788,85.333027 c -1e-4,-5.94e-4 -3e-4,-0.0012 -3.9e-4,-0.0018 -0.001,-0.0095 -0.003,-0.01887 -0.006,-0.02826 -5.9e-4,-0.0026 -0.001,-0.005 -0.002,-0.0077 -0.002,-0.0075 -0.005,-0.01504 -0.008,-0.02241 -9.9e-4,-0.0025 -0.002,-0.005 -0.003,-0.0076 -0.004,-0.0092 -0.008,-0.01837 -0.0132,-0.02735 -1e-4,0 -1e-4,-2.58e-4 -2.1e-4,-3.1e-4 -0.005,-0.009 -0.0107,-0.01736 -0.0166,-0.02543 -0.002,-0.0022 -0.003,-0.0042 -0.005,-0.0064 -0.005,-0.0063 -0.01,-0.01221 -0.0153,-0.01787 -0.002,-0.0019 -0.004,-0.0037 -0.005,-0.0057 -0.007,-0.0068 -0.0138,-0.01322 -0.0213,-0.01908 -4.9e-4,-4.13e-4 -9.9e-4,-8.01e-4 -0.001,-0.0012 -0.008,-0.0065 -0.017,-0.01231 -0.0259,-0.01766 -5.9e-4,-4.14e-4 -0.001,-8.01e-4 -0.002,-0.0012 l -0.34639,-0.204182 c 0.31358,-0.741939 0.47294,-1.530713 0.47294,-2.348552 0,-1.587436 -0.6055,-3.079694 -1.70489,-4.202243 -1.09939,-1.122451 -2.56109,-1.740548 -4.11582,-1.740548 -1.0203,0 -2.02676,0.275338 -2.91035,0.796141 -0.1211,0.07136 -0.16252,0.229415 -0.0926,0.352952 0.0699,0.123541 0.22461,0.165931 0.34571,0.09457 0.80677,-0.475485 1.72564,-0.726901 2.65727,-0.726901 2.93042,0 5.31456,2.434141 5.31456,5.426026 0,0.726398 -0.13741,1.427562 -0.40818,2.088354 l -0.22125,-0.130403 c 0.0302,-0.07509 0.0586,-0.15089 0.085,-0.22679 0.0469,-0.134442 -0.0219,-0.282203 -0.15362,-0.330045 -0.13168,-0.04784 -0.27641,0.02241 -0.32326,0.156846 -0.0161,0.04643 -0.0334,0.09276 -0.0511,0.13888 l -0.95219,-0.561273 c -0.0783,-0.04623 -0.17478,-0.04623 -0.25308,0 l -0.47876,0.282203 c 0.0541,-0.376574 0.0862,-0.764148 0.096,-1.15939 h 2.15429 c 0.13978,0 0.25307,-0.115667 0.25307,-0.258382 0,-1.454813 -0.59215,-2.770947 -1.54296,-3.711014 -0.005,-0.0069 -0.0109,-0.01363 -0.0169,-0.02009 -0.0117,-0.01241 -0.0241,-0.02331 -0.0374,-0.0328 -0.90612,-0.869921 -2.12523,-1.403741 -3.46425,-1.403741 -1.33911,0 -2.55812,0.53382 -3.46434,1.403842 -0.0132,0.0095 -0.0257,0.02029 -0.0373,0.0327 -0.006,0.0065 -0.0117,0.01312 -0.0169,0.01999 -0.9508,0.940067 -1.54296,2.256201 -1.54296,3.711115 0,0.451461 0.058,0.90141 0.17251,1.33743 0.16489,0.628494 0.4407,1.212379 0.81962,1.735502 0.16964,0.234259 0.35786,0.451259 0.56121,0.650294 0.002,0.0026 0.004,0.0054 0.007,0.0079 0.007,0.0078 0.015,0.01484 0.0229,0.0215 0.93203,0.897777 2.1801,1.415048 3.47868,1.415048 0.16697,0 0.3372,-0.0089 0.50615,-0.02604 v 0.259491 c -0.16875,0.01645 -0.33819,0.02483 -0.50615,0.02483 -0.24595,0 -0.49497,-0.01766 -0.74034,-0.05258 -0.003,-6.98e-4 -0.007,-0.0013 -0.0106,-0.0018 -1.66238,-0.242233 -3.13051,-1.287873 -3.9272,-2.796987 -0.003,-0.0065 -0.007,-0.01282 -0.0111,-0.01887 -0.40917,-0.781001 -0.62537,-1.664245 -0.62537,-2.555663 0,-1.284038 0.44802,-2.530531 1.26151,-3.509761 0.0904,-0.108802 0.0773,-0.271805 -0.0294,-0.364156 -0.10656,-0.09235 -0.26622,-0.07893 -0.35667,0.02987 -0.8909,1.072488 -1.38163,2.437676 -1.38163,3.844043 0,0.984273 0.24082,1.959565 0.69625,2.820502 0.004,0.0067 0.007,0.01312 0.0114,0.01938 0.42963,0.806132 1.04571,1.509115 1.78299,2.034155 0.74014,0.527159 1.60306,0.875371 2.49623,1.007489 0.004,6.98e-4 0.008,0.0014 0.0117,0.0019 0.27235,0.03936 0.54895,0.05935 0.82219,0.05935 0.24428,0 0.49122,-0.01615 0.7354,-0.04764 l 2.30149,1.356607 c 5.9e-4,4.1e-4 10e-4,5.9e-4 0.002,10e-4 0.009,0.005 0.0182,0.01 0.0278,0.0139 6.9e-4,3.1e-4 0.001,5e-4 0.002,7e-4 0.009,0.004 0.0176,0.007 0.0267,0.009 0.002,6.9e-4 0.005,0.001 0.008,0.002 0.008,0.002 0.015,0.003 0.0227,0.005 0.003,4.2e-4 0.005,9.1e-4 0.008,0.001 0.01,10e-4 0.02,0.002 0.0301,0.002 0.0101,0 0.0202,-8e-4 0.03,-0.002 0.003,-3.1e-4 0.005,-8e-4 0.008,-0.001 0.008,-0.001 0.0152,-0.003 0.0227,-0.005 0.003,-5.9e-4 0.005,-0.001 0.008,-0.002 0.009,-0.003 0.0181,-0.006 0.0267,-0.009 5.9e-4,-2.6e-4 10e-4,-4.1e-4 0.002,-7e-4 0.01,-0.004 0.0189,-0.009 0.0278,-0.0139 6.9e-4,-4.1e-4 0.001,-5.9e-4 0.002,-10e-4 l 2.40421,-1.417164 c 0.0783,-0.04613 0.12653,-0.131514 0.12653,-0.223764 v -2.834332 c 0,-8.01e-4 -1e-4,-0.0015 -1e-4,-0.0022 0,-0.0106 -6.9e-4,-0.02109 -0.002,-0.03169 z m -5.56545,-4.686911 c 0.55666,-0.02806 1.0984,-0.148469 1.60712,-0.35366 0.16519,0.611234 0.2677,1.305837 0.28737,2.039604 h -1.89449 z m 0,-0.517674 v -2.154967 c 0.58493,0.156037 1.10611,0.843577 1.45359,1.825026 -0.45949,0.189547 -0.94962,0.301783 -1.45359,0.329941 z m 1.67335,-1.12497 c -0.16193,-0.330548 -0.34343,-0.61265 -0.53996,-0.843378 0.57505,0.188035 1.10058,0.489614 1.55137,0.879006 -0.23973,0.206908 -0.49735,0.386563 -0.76901,0.53705 -0.0732,-0.200851 -0.15402,-0.392216 -0.2424,-0.572678 z m -4.09525,0.572678 c -0.27176,-0.150487 -0.52928,-0.330142 -0.76901,-0.53705 0.45079,-0.389392 0.97631,-0.691071 1.55136,-0.879006 -0.19652,0.230728 -0.37803,0.512729 -0.53985,0.843378 -0.0884,0.180462 -0.16935,0.371827 -0.2425,0.572678 z m 1.91575,-1.602675 v 2.154967 c -0.50397,-0.02816 -0.99411,-0.140294 -1.45369,-0.329941 0.34758,-0.981449 0.86875,-1.668989 1.45369,-1.825026 z m 0,2.672641 v 1.685944 h -1.8945 c 0.0197,-0.733767 0.12219,-1.42837 0.28738,-2.039604 0.50872,0.205191 1.05046,0.3256 1.60712,0.35366 z m 0,2.202708 v 1.685944 c -0.55666,0.02796 -1.0984,0.148369 -1.60712,0.35356 -0.16519,-0.611136 -0.2677,-1.30584 -0.28738,-2.039504 z m 0.88576,2.294352 c -6.9e-4,4.13e-4 -0.001,9.04e-4 -0.002,0.0013 -0.009,0.0053 -0.0175,0.0111 -0.0257,0.01746 -5.9e-4,5.17e-4 -10e-4,0.001 -0.002,0.0015 -0.007,0.0058 -0.0142,0.01211 -0.021,0.01877 -0.002,0.0019 -0.004,0.0038 -0.006,0.0058 -0.005,0.0057 -0.0104,0.01161 -0.0152,0.01776 -0.002,0.0022 -0.003,0.0042 -0.005,0.0065 -0.006,0.0081 -0.0116,0.01645 -0.0166,0.02543 -1e-4,0 -1e-4,2.59e-4 -2e-4,3.11e-4 -0.005,0.009 -0.009,0.01817 -0.0132,0.02735 -0.001,0.0025 -0.002,0.005 -0.003,0.0076 -0.003,0.0074 -0.005,0.01494 -0.008,0.02241 -6.9e-4,0.0026 -0.001,0.005 -0.002,0.0077 -0.002,0.0094 -0.004,0.01877 -0.006,0.02826 0,5.94e-4 -2e-4,0.0012 -3e-4,0.0018 -10e-4,0.0106 -0.002,0.02109 -0.002,0.03169 0,6.97e-4 -1e-4,0.0014 -1e-4,0.0022 v 1.738124 c -0.0436,0.0219 -0.0776,0.03815 -0.0974,0.04683 -0.0515,0.02271 -0.1035,0.04108 -0.1557,0.05511 v -2.154766 c 0.15116,0.0086 0.30162,0.02503 0.45099,0.04885 z m -0.88576,-0.09084 v 2.154969 c -0.58494,-0.156039 -1.10611,-0.843579 -1.45369,-1.825025 0.45958,-0.18955 0.94972,-0.301682 1.45369,-0.329944 z m -1.67335,1.124973 c 0.16113,0.329034 0.34165,0.610025 0.53709,0.840145 -0.56586,-0.186015 -1.09346,-0.483154 -1.54929,-0.875068 0.23993,-0.207109 0.49774,-0.387067 0.7698,-0.537657 0.0731,0.200752 0.15412,0.392216 0.2424,0.57258 z m 2.93872,1.874785 v -2.237631 l 1.89805,1.118815 v 2.237632 z m 2.15113,-1.566342 -0.69596,-0.410282 1.89806,-1.118816 0.69595,0.410283 z m 0,-2.237631 0.69595,0.410182 -1.89805,1.118816 -0.69596,-0.410182 z m -1.17502,0.09589 -0.63308,0.37314 c -0.36013,-0.102244 -0.72946,-0.163205 -1.10225,-0.182281 v -1.686045 h 1.89459 c -0.0133,0.515855 -0.0666,1.01728 -0.15926,1.495186 z m 2.55981,-2.01195 h -1.8942 c -0.0198,-0.802297 -0.13158,-1.571488 -0.32504,-2.257614 0.34837,-0.184604 0.67687,-0.411495 0.97898,-0.678153 0.71849,0.775247 1.17907,1.802014 1.24026,2.935767 z m -7.85617,-2.935767 c 0.30211,0.266658 0.63061,0.493549 0.97898,0.678153 -0.19346,0.686126 -0.30527,1.455317 -0.32504,2.257614 h -1.8942 c 0.0612,-1.133753 0.52177,-2.16052 1.24026,-2.935767 z m -0.3545,5.959746 c -0.34096,-0.470739 -0.58919,-0.996286 -0.73767,-1.5619 -0.0811,-0.309149 -0.1302,-0.626073 -0.1476,-0.945315 h 1.89361 c 0.0199,0.802197 0.13168,1.571489 0.32514,2.257514 -0.34887,0.184904 -0.67786,0.4122 -0.98027,0.679362 -0.12554,-0.135144 -0.24358,-0.278466 -0.35321,-0.429661 z m 7.07895,3.81487 v -2.237628 l 1.89806,-1.118815 v 2.237631 z m 0,0"
       inkscape:connector-curvature="0"
       style="opacity:0.05;stroke-width:0.02557143" />
    <g
       id="g1525"
       transform="matrix(0.02645833,0,0,0.02583822,246.69977,60.574907)"
       style="opacity:0.05">
      <path
         id="path1502"
         d="m 300,462 c 0,-0.004 0,-0.008 0,-0.0117 V 30 C 300,13.457031 286.54297,0 270,0 H 109.99609 c -5.52343,0 -9.999996,4.476562 -9.999996,10 0,5.523438 4.476566,10 9.999996,10 H 270 c 5.51562,0 10,4.484375 10,10 h -72.62891 c -2.65234,0 -5.19531,1.054688 -7.07031,2.929688 L 183.22656,50 H 116.77344 L 99.703125,32.929688 C 97.824219,31.054688 95.28125,30 92.628906,30 H 20 c 0,-5.515625 4.484375,-10 10,-10 h 11.03125 c 5.523438,0 10,-4.476562 10,-10 0,-5.523438 -4.476562,-10 -10,-10 H 30 C 13.457031,0 0,13.457031 0,30 v 452 c 0,16.54297 13.457031,30 30,30 h 240 c 16.54297,0 30,-13.45703 30,-30 v -19.98828 c 0,-0.004 0,-0.008 0,-0.0117 z M 88.488281,50 105.55859,67.070312 c 1.875,1.875 4.41797,2.929688 7.07032,2.929688 h 74.73828 c 2.65234,0 5.19531,-1.054688 7.07031,-2.929688 L 211.51172,50 H 280 V 452 H 20 V 50 Z M 270,492 H 30 c -5.515625,0 -10,-4.48438 -10,-10 v -10 h 260 v 10 c 0,5.51562 -4.48438,10 -10,10 z m 0,0"
         inkscape:connector-curvature="0" />
      <path
         id="path1504"
         d="m 69.761719,20 h 0.269531 c 5.523438,0 10,-4.476562 10,-10 0,-5.523438 -4.476562,-10 -10,-10 h -0.269531 c -5.523438,0 -10,4.476562 -10,10 0,5.523438 4.476562,10 10,10 z m 0,0"
         inkscape:connector-curvature="0" />
      <path
         id="path1506"
         d="m 53.398438,306 c 0,3.57422 1.90625,6.875 5,8.66016 l 86.601562,50 c 0.0234,0.0156 0.0508,0.0234 0.0742,0.0391 0.35547,0.19922 0.72265,0.38281 1.10547,0.54297 0.0195,0.008 0.043,0.0156 0.0625,0.0234 0.34765,0.14062 0.69922,0.25781 1.0625,0.35546 0.0977,0.0274 0.19531,0.0547 0.29687,0.0781 0.29297,0.0742 0.59375,0.13281 0.90235,0.17969 0.10156,0.0156 0.20312,0.0312 0.30859,0.0469 0.39062,0.043 0.78516,0.0742 1.1875,0.0742 0.40234,0 0.79687,-0.0312 1.1875,-0.0742 0.10547,-0.0156 0.20703,-0.0312 0.30859,-0.0469 0.30469,-0.0469 0.60547,-0.10547 0.90235,-0.17969 0.0977,-0.0234 0.19922,-0.0469 0.29687,-0.0781 0.36328,-0.0976 0.71485,-0.21875 1.0625,-0.35546 0.0195,-0.008 0.043,-0.0156 0.0625,-0.0234 0.38281,-0.16016 0.75,-0.34375 1.10547,-0.54297 0.0234,-0.0156 0.0508,-0.0234 0.0742,-0.0391 l 86.60156,-50 c 3.09375,-1.78516 5,-5.08594 5,-8.66016 V 206 c 0,-0.0273 -0.004,-0.0586 -0.004,-0.0859 -0.004,-0.40625 -0.0273,-0.8164 -0.082,-1.22656 -0.004,-0.0234 -0.008,-0.043 -0.0117,-0.0664 -0.0508,-0.36718 -0.125,-0.73437 -0.22266,-1.10156 -0.0234,-0.0977 -0.0508,-0.19531 -0.082,-0.29297 -0.082,-0.28906 -0.1836,-0.58203 -0.29688,-0.86719 -0.0352,-0.0977 -0.0703,-0.19531 -0.11328,-0.29296 -0.15234,-0.35547 -0.32031,-0.71094 -0.51953,-1.05469 -0.004,-0.008 -0.008,-0.0156 -0.0117,-0.0234 -0.20312,-0.34375 -0.42187,-0.66797 -0.65625,-0.98047 -0.0625,-0.082 -0.1289,-0.16015 -0.19531,-0.24219 -0.19141,-0.24218 -0.39453,-0.47265 -0.60547,-0.69531 -0.0703,-0.0703 -0.14062,-0.14062 -0.21094,-0.21094 -0.26953,-0.26562 -0.55468,-0.51953 -0.85156,-0.75 -0.0156,-0.0117 -0.0273,-0.0234 -0.043,-0.0352 -0.32812,-0.25391 -0.67187,-0.48047 -1.02734,-0.6875 -0.0234,-0.0156 -0.043,-0.0312 -0.0664,-0.0469 l -86.60156,-50 c -3.09375,-1.78515 -6.90625,-1.78515 -10,0 l -86.605469,50 c -0.02734,0.0156 -0.04687,0.0352 -0.07422,0.0508 -0.347656,0.20704 -0.6875,0.42969 -1.011718,0.67969 -0.02734,0.0195 -0.04687,0.0391 -0.07422,0.0586 -0.285156,0.22656 -0.558594,0.46875 -0.820313,0.72656 -0.07812,0.0742 -0.148437,0.14844 -0.222656,0.22265 -0.207031,0.21875 -0.40625,0.44532 -0.597656,0.6836 -0.06641,0.0859 -0.132812,0.16406 -0.199219,0.25 -0.230469,0.3125 -0.453125,0.63672 -0.652343,0.98047 -0.0039,0.008 -0.0078,0.0156 -0.01172,0.0234 -0.199219,0.34375 -0.367188,0.69532 -0.519531,1.05469 -0.04297,0.0937 -0.07813,0.19141 -0.117188,0.28906 -0.113281,0.28907 -0.210938,0.57813 -0.296875,0.8711 -0.02734,0.0977 -0.05469,0.19531 -0.08203,0.29297 -0.09375,0.36328 -0.167969,0.73047 -0.21875,1.09765 -0.0039,0.0234 -0.0078,0.0469 -0.01172,0.0703 -0.05469,0.40625 -0.07813,0.8164 -0.08203,1.22265 0,0.0312 -0.0039,0.0586 -0.0039,0.0859 z m 20,-82.67969 L 140,261.77344 v 76.90625 L 73.398438,300.22656 Z M 216.60156,206 150,244.45312 126.69922,231 193.30078,192.54687 Z M 160,338.67969 v -76.90625 l 66.60156,-38.45313 v 76.90625 z M 150,167.54687 173.30078,181 106.69922,219.45312 83.398438,206 Z m 0,0"
         inkscape:connector-curvature="0" />
      <path
         id="path1508"
         d="m 190.23437,422.00391 h -0.23828 c -5.51953,0 -10,4.47656 -10,10 0,5.51953 4.48047,10 10,10 h 0.23828 c 5.52344,0 10,-4.48047 10,-10 0,-5.52344 -4.47656,-10 -10,-10 z m 0,0"
         inkscape:connector-curvature="0" />
      <path
         id="path1510"
         d="m 208.96484,432 c 0,5.52344 4.47657,10 10,10 H 260 c 5.52344,0 10,-4.47656 10,-10 0,-5.52344 -4.47656,-10 -10,-10 h -41.03516 c -5.52343,0 -10,4.47656 -10,10 z m 0,0"
         inkscape:connector-curvature="0" />
    </g>
  </g>
</svg>
