<?xml version="1.0" encoding="UTF-8" standalone="no"?>
<!-- Created with Inkscape (http://www.inkscape.org/) -->

<svg
   xmlns:dc="http://purl.org/dc/elements/1.1/"
   xmlns:cc="http://creativecommons.org/ns#"
   xmlns:rdf="http://www.w3.org/1999/02/22-rdf-syntax-ns#"
   xmlns:svg="http://www.w3.org/2000/svg"
   xmlns="http://www.w3.org/2000/svg"
   xmlns:sodipodi="http://sodipodi.sourceforge.net/DTD/sodipodi-0.dtd"
   xmlns:inkscape="http://www.inkscape.org/namespaces/inkscape"
   width="10.583334mm"
   height="13.229169mm"
   viewBox="0 0 10.583334 13.229169"
   version="1.1"
   id="svg8"
   inkscape:version="0.92.3 (2405546, 2018-03-11)"
   sodipodi:docname="kategori-barang.svg">
  <defs
     id="defs2" />
  <sodipodi:namedview
     id="base"
     pagecolor="#ffffff"
     bordercolor="#666666"
     borderopacity="1.0"
     inkscape:pageopacity="0.0"
     inkscape:pageshadow="2"
     inkscape:zoom="3.959798"
     inkscape:cx="32.852722"
     inkscape:cy="32.93891"
     inkscape:document-units="mm"
     inkscape:current-layer="layer1"
     showgrid="false"
     inkscape:window-width="1366"
     inkscape:window-height="723"
     inkscape:window-x="0"
     inkscape:window-y="22"
     inkscape:window-maximized="1" />
  <metadata
     id="metadata5">
    <rdf:RDF>
      <cc:Work
         rdf:about="">
        <dc:format>image/svg+xml</dc:format>
        <dc:type
           rdf:resource="http://purl.org/dc/dcmitype/StillImage" />
        <dc:title />
      </cc:Work>
    </rdf:RDF>
  </metadata>
  <g
     inkscape:label="Layer 1"
     inkscape:groupmode="layer"
     id="layer1"
     transform="translate(-83.631598,-121.76809)">
    <path
       inkscape:connector-curvature="0"
       d="m -190.29034,330.58404 h -1.06028 c -0.14261,0 -0.25838,0.10815 -0.25838,0.24158 0,0.13343 0.11577,0.24158 0.25838,0.24158 h 1.06028 c 0.14271,0 0.25838,-0.10815 0.25838,-0.24158 0,-0.13343 -0.11567,-0.24158 -0.25838,-0.24158 z m 0,0"
       id="path1461"
       style="stroke-width:0.02498379" />
    <path
       inkscape:connector-curvature="0"
       d="m -192.09296,330.58414 h -0.006 c -0.14272,0 -0.25839,0.10814 -0.25839,0.24157 0,0.13344 0.11567,0.24158 0.25839,0.24158 h 0.006 c 0.14271,0 0.25838,-0.10814 0.25838,-0.24158 0,-0.13343 -0.11567,-0.24157 -0.25838,-0.24157 z m 0,0"
       id="path1463"
       style="stroke-width:0.02498379" />
    <path
       inkscape:connector-curvature="0"
       d="m -198.71734,323.86832 h 0.007 c 0.14272,0 0.25838,-0.10814 0.25838,-0.24157 0,-0.13344 -0.11566,-0.24158 -0.25838,-0.24158 h -0.007 c -0.14271,0 -0.25838,0.10814 -0.25838,0.24158 0,0.13343 0.11567,0.24157 0.25838,0.24157 z m 0,0"
       id="path1467"
       style="stroke-width:0.02498379" />
    <path
       id="path1527"
       d="m -143.27895,233.28067 c -0.1382,-0.0214 -0.26721,0.0756 -0.28826,0.2166 l -0.001,0.009 c -0.0211,0.1411 0.0739,0.27281 0.21215,0.29431 0.0129,0.002 0.0257,0.003 0.0384,0.003 0.12297,0 0.23083,-0.0917 0.24991,-0.21953 l 10e-4,-0.009 c 0.0211,-0.1411 -0.0739,-0.27282 -0.21215,-0.29432 z m 0,0"
       inkscape:connector-curvature="0"
       style="stroke-width:0.02557143" />
    <path
       id="path1529"
       d="m -151.7681,228.79643 c 0.0597,0 0.11962,-0.0215 0.16786,-0.0652 l 0.005,-0.005 c 0.10449,-0.0947 0.11408,-0.25797 0.0213,-0.36476 -0.0928,-0.10668 -0.25277,-0.11647 -0.35726,-0.0217 l -0.005,0.005 c -0.10459,0.0947 -0.11418,0.25797 -0.0214,0.36476 0.05,0.0575 0.11952,0.0869 0.18941,0.0869 z m 0,0"
       inkscape:connector-curvature="0"
       style="stroke-width:0.02557143" />
    <g
       style="opacity:1;fill:#333333"
       transform="matrix(0.02481802,0,0,0.02583822,83.631598,121.76809)"
       id="g1175">
      <path
         inkscape:connector-curvature="0"
         d="m 150.44922,20 h 0.26953 c 5.52344,0 10,-4.476562 10,-10 0,-5.523438 -4.47656,-10 -10,-10 h -0.26953 c -5.51953,0 -10,4.476562 -10,10 0,5.523438 4.48047,10 10,10 z m 0,0"
         id="path1151"
         style="fill:#333333" />
      <path
         inkscape:connector-curvature="0"
         d="m 396.4375,0 h -205.75 c -5.52344,0 -10,4.476562 -10,10 0,5.523438 4.47656,10 10,10 h 205.75 c 5.51562,0 10,4.484375 10,10 v 366.4375 c 0,5.51172 -4.48438,10 -10,10 H 355.75391 V 183.92187 c 0,-0.11328 -0.0117,-0.21875 -0.0156,-0.32812 -0.004,-0.12109 -0.0117,-0.24219 -0.0195,-0.35938 -0.0273,-0.41406 -0.0742,-0.82031 -0.14844,-1.21875 -0.004,-0.0156 -0.008,-0.0391 -0.0117,-0.0586 -0.0859,-0.4375 -0.20703,-0.86328 -0.35156,-1.28125 -0.0273,-0.0781 -0.0586,-0.16016 -0.0859,-0.23828 -0.14843,-0.39063 -0.3125,-0.77344 -0.5039,-1.13672 -0.0156,-0.0312 -0.0234,-0.0586 -0.0391,-0.0859 -0.20704,-0.38672 -0.44532,-0.75781 -0.69922,-1.11328 -0.0586,-0.082 -0.1211,-0.16015 -0.1836,-0.24219 -0.26562,-0.34765 -0.55078,-0.6875 -0.85937,-1 -0.004,-0.004 -0.008,-0.008 -0.0117,-0.0117 L 264.46875,88.492188 c -0.004,-0.0039 -0.008,-0.0078 -0.0117,-0.01172 -0.3125,-0.308594 -0.64844,-0.589844 -0.99609,-0.855469 -0.082,-0.06641 -0.16407,-0.128906 -0.25,-0.1875 -0.35547,-0.253906 -0.71875,-0.488281 -1.10547,-0.695312 -0.0312,-0.01563 -0.0664,-0.03125 -0.10156,-0.04688 -0.35938,-0.1875 -0.73438,-0.351562 -1.11719,-0.492187 -0.082,-0.03125 -0.16797,-0.0625 -0.25,-0.09375 -0.41406,-0.140625 -0.83985,-0.261719 -1.27735,-0.351563 -0.0195,-0.0039 -0.043,-0.0039 -0.0664,-0.0078 -0.39453,-0.07813 -0.80078,-0.121094 -1.20703,-0.152344 -0.1211,-0.0078 -0.23828,-0.01172 -0.35938,-0.01563 -0.10937,-0.0039 -0.21875,-0.01953 -0.32812,-0.01953 H 90.683594 V 30 c 0,-5.515625 4.488281,-10 9.999996,-10 h 21.03516 c 5.52344,0 10,-4.476562 10,-10 0,-5.523438 -4.47656,-10 -10,-10 H 100.68359 C 84.144531,0 70.683594,13.457031 70.683594,30 V 85.5625 H 30 c -16.542969,0 -30,13.460938 -30,30 V 482 c 0,16.54297 13.457031,30 30,30 h 295.75391 c 16.54296,0 30,-13.45703 30,-30 v -55.5625 h 40.68359 c 16.54297,0 30,-13.45703 30,-30 V 30 c 0,-16.542969 -13.45703,-30 -30,-30 z m -129.03906,119.70703 54.21484,54.21484 h -44.21484 c -5.51563,0 -10,-4.48828 -10,-10 z M 335.75391,482 c 0,5.51562 -4.48438,10 -10,10 H 30 c -5.511719,0 -10,-4.48438 -10,-10 V 115.5625 c 0,-5.51172 4.488281,-10 10,-10 h 217.39844 v 58.35937 c 0,16.54297 13.45703,30 30,30 h 58.35547 z m 0,0"
         id="path1153"
         style="fill:#333333" />
      <path
         inkscape:connector-curvature="0"
         d="m 110.70703,236.02734 -19.597655,19.59375 -6.261719,-6.26172 c -3.902344,-3.90625 -10.234375,-3.90625 -14.140625,0 -3.90625,3.90625 -3.90625,10.23829 0,14.14063 l 13.332031,13.33594 c 1.875,1.875 4.417969,2.92578 7.070313,2.92578 2.652344,0 5.195313,-1.05078 7.070313,-2.92578 l 26.667972,-26.66797 c 3.90625,-3.90625 3.90625,-10.23828 0,-14.14453 -3.90235,-3.90235 -10.23438,-3.90235 -14.14063,0.004 z m 0,0"
         id="path1155"
         style="fill:#333333" />
      <path
         inkscape:connector-curvature="0"
         d="M 110.70703,316.02734 91.109375,335.625 84.847656,329.36328 c -3.902344,-3.90625 -10.234375,-3.90625 -14.140625,0 -3.90625,3.90234 -3.90625,10.23438 0,14.14063 l 13.332031,13.33203 c 1.875,1.875 4.417969,2.92968 7.070313,2.92968 2.652344,0 5.195313,-1.05468 7.070313,-2.92968 l 26.667972,-26.66797 c 3.90625,-3.90235 3.90625,-10.23438 0,-14.14063 -3.90235,-3.90625 -10.23438,-3.90625 -14.14063,0 z m 0,0"
         id="path1157"
         style="fill:#333333" />
      <path
         inkscape:connector-curvature="0"
         d="M 110.70703,396.03125 91.109375,415.625 84.847656,409.36328 c -3.90625,-3.90234 -10.234375,-3.90234 -14.140625,0 -3.90625,3.90625 -3.90625,10.23828 0,14.14453 l 13.332031,13.33203 c 1.953126,1.95313 4.511719,2.92969 7.070313,2.92969 2.558594,0 5.117187,-0.97656 7.070313,-2.92969 l 26.667972,-26.66797 c 3.90625,-3.90234 3.90625,-10.23437 0,-14.14062 -3.90235,-3.90625 -10.23438,-3.90625 -14.14063,0 z m 0,0"
         id="path1159"
         style="fill:#333333" />
      <path
         inkscape:connector-curvature="0"
         d="m 163.82422,266.42969 h 114.15234 c 5.52344,0 10,-4.47657 10,-10 0,-5.52344 -4.47656,-10 -10,-10 H 163.82422 c -5.51953,0 -10,4.47656 -10,10 0,5.52343 4.48047,10 10,10 z m 0,0"
         id="path1161"
         style="fill:#333333" />
      <path
         inkscape:connector-curvature="0"
         d="m 163.82422,346.43359 h 114.15234 c 5.52344,0 10,-4.47656 10,-10 0,-5.52343 -4.47656,-10 -10,-10 H 163.82422 c -5.51953,0 -10,4.47657 -10,10 0,5.52344 4.48047,10 10,10 z m 0,0"
         id="path1163"
         style="fill:#333333" />
      <path
         inkscape:connector-curvature="0"
         d="m 287.97656,416.4375 c 0,-5.52344 -4.47656,-10 -10,-10 H 163.82422 c -5.51953,0 -10,4.47656 -10,10 0,5.51953 4.48047,10 10,10 h 114.15234 c 5.52344,0 10,-4.48047 10,-10 z m 0,0"
         id="path1165"
         style="fill:#333333" />
      <path
         inkscape:connector-curvature="0"
         d="m 77.777344,193.92187 h 39.999996 c 5.52344,0 10,-4.47656 10,-10 0,-5.52343 -4.47656,-10 -10,-10 H 77.777344 c -5.519532,0 -10,4.47657 -10,10 0,5.52344 4.476562,10 10,10 z m 0,0"
         id="path1167"
         style="fill:#333333" />
      <path
         inkscape:connector-curvature="0"
         d="m 163.82422,193.92187 h 40 c 5.52344,0 10,-4.47656 10,-10 0,-5.52343 -4.47656,-10 -10,-10 h -40 c -5.51953,0 -10,4.47657 -10,10 0,5.52344 4.48047,10 10,10 z m 0,0"
         id="path1169"
         style="fill:#333333" />
      <path
         inkscape:connector-curvature="0"
         d="m 245.98828,462 h -0.23437 c -5.52344,0 -10,4.47656 -10,10 0,5.52344 4.47656,10 10,10 h 0.23437 c 5.52344,0 10,-4.47656 10,-10 0,-5.52344 -4.47656,-10 -10,-10 z m 0,0"
         id="path1171"
         style="fill:#333333" />
      <path
         inkscape:connector-curvature="0"
         d="m 315.75391,461.99609 h -41.03516 c -5.52344,0 -10,4.47657 -10,10 0,5.52344 4.47656,10 10,10 h 41.03516 c 5.52343,0 10,-4.47656 10,-10 0,-5.52343 -4.47657,-10 -10,-10 z m 0,0"
         id="path1173"
         style="fill:#333333" />
    </g>
  </g>
</svg>
