<?xml version="1.0" encoding="UTF-8" standalone="no"?>
<!-- Created with Inkscape (http://www.inkscape.org/) -->

<svg
   xmlns:dc="http://purl.org/dc/elements/1.1/"
   xmlns:cc="http://creativecommons.org/ns#"
   xmlns:rdf="http://www.w3.org/1999/02/22-rdf-syntax-ns#"
   xmlns:svg="http://www.w3.org/2000/svg"
   xmlns="http://www.w3.org/2000/svg"
   xmlns:sodipodi="http://sodipodi.sourceforge.net/DTD/sodipodi-0.dtd"
   xmlns:inkscape="http://www.inkscape.org/namespaces/inkscape"
   width="15.875003mm"
   height="15.874338mm"
   viewBox="0 0 15.875003 15.874337"
   version="1.1"
   id="svg8"
   inkscape:version="0.92.3 (2405546, 2018-03-11)"
   sodipodi:docname="pelanggan-icon.svg">
  <defs
     id="defs2" />
  <sodipodi:namedview
     id="base"
     pagecolor="#ffffff"
     bordercolor="#666666"
     borderopacity="1.0"
     inkscape:pageopacity="0.0"
     inkscape:pageshadow="2"
     inkscape:zoom="2.8"
     inkscape:cx="-1.9325123"
     inkscape:cy="30.418162"
     inkscape:document-units="mm"
     inkscape:current-layer="layer1"
     showgrid="false"
     inkscape:window-width="1366"
     inkscape:window-height="723"
     inkscape:window-x="0"
     inkscape:window-y="22"
     inkscape:window-maximized="1" />
  <metadata
     id="metadata5">
    <rdf:RDF>
      <cc:Work
         rdf:about="">
        <dc:format>image/svg+xml</dc:format>
        <dc:type
           rdf:resource="http://purl.org/dc/dcmitype/StillImage" />
        <dc:title></dc:title>
      </cc:Work>
    </rdf:RDF>
  </metadata>
  <g
     inkscape:label="Layer 1"
     inkscape:groupmode="layer"
     id="layer1"
     transform="translate(-184.77411,-483.90511)">
    <path
       id="path1527"
       d="m -143.27895,233.28067 c -0.1382,-0.0214 -0.26721,0.0756 -0.28826,0.2166 l -0.001,0.009 c -0.0211,0.1411 0.0739,0.27281 0.21215,0.29431 0.0129,0.002 0.0257,0.003 0.0384,0.003 0.12297,0 0.23083,-0.0917 0.24991,-0.21953 l 10e-4,-0.009 c 0.0211,-0.1411 -0.0739,-0.27282 -0.21215,-0.29432 z m 0,0"
       inkscape:connector-curvature="0"
       style="stroke-width:0.02557143" />
    <path
       id="path1529"
       d="m -151.7681,228.79643 c 0.0597,0 0.11962,-0.0215 0.16786,-0.0652 l 0.005,-0.005 c 0.10449,-0.0947 0.11408,-0.25797 0.0213,-0.36476 -0.0928,-0.10668 -0.25277,-0.11647 -0.35726,-0.0217 l -0.005,0.005 c -0.10459,0.0947 -0.11418,0.25797 -0.0214,0.36476 0.05,0.0575 0.11952,0.0869 0.18941,0.0869 z m 0,0"
       inkscape:connector-curvature="0"
       style="stroke-width:0.02557143" />
    <g
       id="g2919"
       transform="matrix(0.03100575,0,0,0.03100575,184.77411,483.90511)"
       style="fill:#ffffff">
      <path
         id="path2890"
         d="M 508.87109,394.50391 469.5,332.50781 c -2.875,-4.52734 -7.35156,-7.66797 -12.60547,-8.83984 -5.25,-1.17188 -10.63672,-0.23438 -15.16406,2.64062 l -11.73438,7.44922 c -6.94922,4.41406 -10.26562,12.41406 -9.08593,20.07813 l -7.36328,3.96484 c -1.75782,0.94531 -3.39454,1.84375 -4.94922,2.71094 V 218 c 0,-14.33594 -11.66407,-26 -26,-26 H 216.00391 c -5.52344,0 -10,4.47656 -10,10 v 68 c 0,3.46484 1.79297,6.68359 4.74218,8.50391 2.94922,1.82421 6.62891,1.98828 9.73047,0.4375 l 15.52735,-7.76172 15.52734,7.76172 c 1.40625,0.70703 2.9375,1.05859 4.47266,1.05859 1.53125,0 3.0625,-0.35156 4.46875,-1.05859 L 276,271.17969 l 15.53125,7.76172 c 3.09766,1.55078 6.77734,1.38671 9.72656,-0.4375 C 304.20703,276.68359 306,273.46484 306,270 v -58 h 76.59766 c 3.2539,0 6,2.74609 6,6 v 156.75 c -4.41016,4.62109 -7.9336,10.11328 -12.41407,18.22266 -1.97656,3.57812 -3.51562,6.53515 -4.75,8.91406 -4.99609,9.60156 -4.99609,9.60156 -18.6914,16.97656 l -19.64453,10.57422 c -5.65625,3.04687 -9.79297,8.125 -11.64454,14.30469 -0.6914,2.30078 -1.03125,4.64453 -1.03125,6.97656 h -49.24609 c -5.51562,0 -10.79687,1.74609 -15.16016,4.9375 -4.22656,-3.09766 -9.48828,-4.9375 -15.1875,-4.9375 h -49.24218 c -0.004,-2.33203 -0.34375,-4.67578 -1.03516,-6.97656 -1.85156,-6.17969 -5.98828,-11.25782 -11.64453,-14.30469 l -19.64453,-10.57422 c -13.69531,-7.375 -13.69531,-7.375 -18.69141,-16.97656 -1.23437,-2.37891 -2.77344,-5.33594 -4.75,-8.91406 -4.48047,-8.10938 -8.0039,-13.60547 -12.41406,-18.22266 V 218 c 0,-3.25391 2.74609,-6 6,-6 h 17.63281 c 5.52344,0 10,-4.47656 10,-10 0,-5.52344 -4.47656,-10 -10,-10 h -17.63281 c -14.33594,0 -26,11.66406 -26,26 v 142.51172 c -1.55469,-0.86719 -3.19531,-1.76563 -4.949219,-2.71094 l -7.363281,-3.96484 c 0.375,-2.45313 0.3125,-4.97657 -0.246094,-7.47266 -1.171875,-5.25391 -4.3125,-9.73047 -8.839844,-12.60547 l -11.730468,-7.44922 c -4.527344,-2.875 -9.914063,-3.8125 -15.167969,-2.64062 -5.253906,1.17187 -9.730469,4.3125 -12.605469,8.83984 l -39.371094,61.9961 c -2.875,4.52734 -3.8125,9.91406 -2.640624,15.16796 1.171874,5.25391 4.3125,9.72657 8.839843,12.60157 l 11.734375,7.45312 c 3.335938,2.1211 7.0625,3.12891 10.75,3.12891 2.824219,0 5.625,-0.59766 8.203125,-1.74219 l 35.835938,52.29297 c 0.238281,0.34766 0.5,0.67969 0.777343,0.99219 20.066407,22.5664 28.792968,27.58593 57.332028,27.58203 3.3086,0 6.88672,-0.0664 10.77735,-0.1836 0.29687,-0.008 0.59375,-0.0312 0.88672,-0.0625 l 97.25781,-11.61328 c 4.98437,-0.59375 9.45703,-2.43359 13.11328,-5.17187 3.65625,2.73828 8.12891,4.57812 13.11328,5.17187 l 97.25781,11.61328 c 0.29297,0.0312 0.58985,0.0547 0.88672,0.0625 3.89453,0.11719 7.46875,0.1836 10.77735,0.1836 28.53515,0 37.26562,-5.01953 57.33203,-27.58203 0.27734,-0.3125 0.53906,-0.64453 0.77734,-0.99219 l 35.83203,-52.28516 c 1.20703,0.53125 2.47657,0.94922 3.79297,1.2461 1.47656,0.32812 2.96094,0.49218 4.4375,0.49218 3.77344,0 7.47656,-1.0664 10.73047,-3.13281 l 11.73047,-7.45312 c 9.37109,-5.94532 12.15234,-18.40235 6.20312,-27.76953 z M 286,253.82031 l -5.52734,-2.76562 c -2.8125,-1.40625 -6.12891,-1.40625 -8.94141,0 l -15.52734,7.76562 -15.53125,-7.76562 c -2.8125,-1.40625 -6.12891,-1.40625 -8.94141,0 l -5.52734,2.76562 V 212 H 286 Z M 20.054688,405.39062 c -0.03906,-0.0195 -0.0625,-0.1289 -0.03906,-0.16406 l 39.371094,-62 c 0.02344,-0.0312 0.06641,-0.0508 0.109375,-0.0508 0.02344,0 0.04297,0.004 0.05859,0.0156 l 11.730468,7.44922 c 0.05078,0.0312 0.07031,0.12109 0.03906,0.16796 l -37.9375,59.73829 c -0.01953,0.0312 -0.03906,0.0625 -0.0625,0.0937 l -1.371094,2.16406 c -0.02344,0.0391 -0.132813,0.0586 -0.167969,0.0391 z m 220.460932,74.875 -96.80859,11.55469 C 112.01953,492.74219 109.19922,490.89844 92,471.57812 l -38.242188,-55.80078 28.078126,-44.21093 7.140624,3.84375 c 8.695313,4.68359 13.890628,7.75 17.718748,11.03906 0.15625,0.14062 0.3086,0.27734 0.46875,0.41015 4.34375,3.86719 6.9336,8.14844 11.15235,15.78516 1.85156,3.35938 3.26562,6.07422 4.51562,8.47266 6.84766,13.16797 9.01563,15.69922 26.94922,25.35547 l 19.64453,10.57812 c 1.28516,0.69141 1.78516,1.82422 1.97266,2.44141 0.18359,0.61328 0.39062,1.83593 -0.30469,3.12109 -0.36719,0.69141 -0.73828,1.27344 -1.10547,1.78516 -0.082,0.10156 -0.15625,0.21093 -0.23828,0.3164 -2.73438,3.5625 -5.26953,2.59766 -6.72266,2.03516 -9.65625,-3.72266 -17.33203,-6.12891 -24.75781,-8.46094 -7.71484,-2.41797 -15.0039,-4.70703 -24.13672,-8.34375 -5.1289,-2.04297 -10.94531,0.45703 -12.98828,5.58594 -2.046874,5.13281 0.45703,10.94922 5.58594,12.99219 9.83203,3.91797 17.82422,6.42578 25.55469,8.84765 7.12109,2.23438 14.48828,4.54688 23.54687,8.03907 3.25391,1.2539 6.5,1.86328 9.65625,1.86328 6.09766,0 11.83203,-2.28516 16.55469,-6.55469 h 58.78515 c 2.5,0 5.17188,1.72656 5.17579,4.29687 v 0.004 0.008 c -0.004,3.16407 -2.75782,4.91016 -5.48829,5.23828 z m 179.48829,-8.68359 c -17.19922,19.32031 -20.01954,21.16016 -51.70704,20.24219 l -96.80859,-11.5586 c -2.73047,-0.32812 -5.48437,-2.07421 -5.48437,-5.24218 v -0.004 c 0,-0.004 0,-0.004 0,-0.008 0,-1.33203 0.71875,-2.27344 1.32031,-2.82813 1.00781,-0.92968 2.41406,-1.46484 3.85156,-1.46484 h 58.78516 c 4.72265,4.26953 10.46094,6.55469 16.55469,6.55469 3.15625,0 6.40625,-0.60938 9.65625,-1.86328 9.05859,-3.49219 16.42578,-5.80469 23.55078,-8.03907 7.73047,-2.42578 15.72265,-4.93359 25.55078,-8.84765 5.13281,-2.04297 7.63281,-7.85938 5.58984,-12.99219 -2.04297,-5.12891 -7.85937,-7.63281 -12.99219,-5.58594 -9.1289,3.63672 -16.41797,5.92188 -24.13281,8.34375 -7.42578,2.32813 -15.10547,4.73828 -24.76172,8.46094 -1.45312,0.55859 -3.98828,1.52734 -6.73047,-2.04688 -0.0742,-0.0976 -0.14453,-0.19921 -0.22265,-0.29687 -0.36719,-0.51172 -0.74219,-1.10156 -1.11328,-1.79297 -0.69141,-1.28516 -0.48828,-2.50781 -0.30078,-3.12109 0.18359,-0.61719 0.68359,-1.75 1.96875,-2.44141 l 19.64453,-10.57812 c 17.9375,-9.65625 20.10156,-12.1875 26.95312,-25.35547 1.2461,-2.39844 2.66016,-5.11328 4.51563,-8.47266 4.21875,-7.63672 6.80859,-11.91797 11.15234,-15.78906 0.15625,-0.125 0.30469,-0.26172 0.45313,-0.39453 3.82812,-3.29688 9.02734,-6.36328 17.73437,-11.05078 l 7.13672,-3.84375 28.07812,44.21093 z m 71.94531,-66.19141 -11.73047,7.45313 c -0.0508,0.0312 -0.13672,0.0117 -0.16797,-0.0391 l -39.37109,-61.9961 c -0.0234,-0.0351 0,-0.14453 0.0391,-0.16797 l 11.73047,-7.44921 c 0.0156,-0.0117 0.0351,-0.0156 0.0586,-0.0156 0.043,0 0.0859,0.0195 0.10938,0.0508 l 39.37109,62 c 0.0312,0.0469 0.008,0.13672 -0.0391,0.16406 z m 0,0"
         inkscape:connector-curvature="0"
         style="fill:#ffffff" />
      <path
         id="path2892"
         d="m 175.76953,212 h 0.26953 c 5.51953,0 10,-4.47656 10,-10 0,-5.52344 -4.48047,-10 -10,-10 h -0.26953 c -5.52344,0 -10,4.47656 -10,10 0,5.52344 4.47656,10 10,10 z m 0,0"
         inkscape:connector-curvature="0"
         style="fill:#ffffff" />
      <path
         id="path2894"
         d="m 249.96875,386.52344 c -5.52344,0 -10,4.47656 -10,10 0,5.52343 4.47656,10 10,10 h 41.03516 c 5.52343,0 10,-4.47657 10,-10 0,-5.52344 -4.47657,-10 -10,-10 z m 0,0"
         inkscape:connector-curvature="0"
         style="fill:#ffffff" />
      <path
         id="path2896"
         d="m 221,386.52344 c -5.51953,0 -10,4.47656 -10,10 0,5.52343 4.48047,10 10,10 h 0.23828 c 5.52344,0 10,-4.47657 10,-10 0,-5.52344 -4.47656,-10 -10,-10 z m 0,0"
         inkscape:connector-curvature="0"
         style="fill:#ffffff" />
      <path
         id="path2898"
         d="m 313.25391,366.52344 c 0,-5.52344 -4.48047,-10 -10,-10 h -94.5 c -5.52344,0 -10,4.47656 -10,10 0,5.51953 4.47656,10 10,10 h 94.5 c 5.51953,0 10,-4.48047 10,-10 z m 0,0"
         inkscape:connector-curvature="0"
         style="fill:#ffffff" />
      <path
         id="path2900"
         d="m 215.90625,137.55469 c 14.51953,14.04687 31.78906,22.4414 40.09766,22.4414 8.30468,0 25.57421,-8.39453 40.09375,-22.4414 C 309.73828,124.35547 326,101.32422 326,66.539062 V 35.125 c 0,-5.519531 -4.47656,-9.996094 -10,-9.996094 -7.94922,0 -21.26172,-6.863281 -24.02344,-17.617187 C 290.84375,3.09375 286.85937,0 282.29297,0 h -52.58203 c -4.5625,0 -8.55078,3.089844 -9.6836,7.511719 -2.76171,10.753906 -16.07421,17.617187 -24.02343,17.617187 -5.52344,0 -10,4.476563 -10,9.996094 v 31.414062 c 0,34.785158 16.26172,57.816408 29.90234,71.015628 z M 206.00391,43.792969 C 218.08203,40.679688 230.42969,32.25 236.57812,20 h 38.85157 c 6.14453,12.25 18.49218,20.679688 30.57422,23.792969 v 22.746093 c 0,27.003907 -12.28907,45.054688 -22.59766,55.445318 -11.70313,11.79296 -23.97266,17.10546 -27.40234,17.9414 -3.42969,-0.83594 -15.69922,-6.14844 -27.40235,-17.9414 -10.30859,-10.39063 -22.59765,-28.441411 -22.59765,-55.445318 z m 0,0"
         inkscape:connector-curvature="0"
         style="fill:#ffffff" />
      <path
         id="path2902"
         d="m 248.00391,106 c 2.55859,0 5.11718,-0.97656 7.07031,-2.92969 l 32,-31.999998 c 3.90234,-3.90625 3.90234,-10.238281 0,-14.144531 -3.90625,-3.902343 -10.23828,-3.902343 -14.14453,0 L 248,81.855469 239.07031,72.925781 c -3.90234,-3.902343 -10.23437,-3.902343 -14.14062,0 -3.90625,3.90625 -3.90625,10.238281 0,14.144531 l 16,15.999998 c 1.95312,1.95313 4.51172,2.92969 7.07422,2.92969 z m 0,0"
         inkscape:connector-curvature="0"
         style="fill:#ffffff" />
    </g>
  </g>
</svg>
