<?xml version="1.0" encoding="UTF-8" standalone="no"?>
<!-- Created with Inkscape (http://www.inkscape.org/) -->

<svg
   xmlns:dc="http://purl.org/dc/elements/1.1/"
   xmlns:cc="http://creativecommons.org/ns#"
   xmlns:rdf="http://www.w3.org/1999/02/22-rdf-syntax-ns#"
   xmlns:svg="http://www.w3.org/2000/svg"
   xmlns="http://www.w3.org/2000/svg"
   xmlns:sodipodi="http://sodipodi.sourceforge.net/DTD/sodipodi-0.dtd"
   xmlns:inkscape="http://www.inkscape.org/namespaces/inkscape"
   width="15.875002mm"
   height="15.874993mm"
   viewBox="0 0 15.875002 15.874993"
   version="1.1"
   id="svg8"
   inkscape:version="0.92.3 (2405546, 2018-03-11)"
   sodipodi:docname="pemasok-icon.svg">
  <defs
     id="defs2" />
  <sodipodi:namedview
     id="base"
     pagecolor="#ffffff"
     bordercolor="#666666"
     borderopacity="1.0"
     inkscape:pageopacity="0.0"
     inkscape:pageshadow="2"
     inkscape:zoom="2.8"
     inkscape:cx="-32.955619"
     inkscape:cy="48.322943"
     inkscape:document-units="mm"
     inkscape:current-layer="layer1"
     showgrid="false"
     inkscape:window-width="1366"
     inkscape:window-height="723"
     inkscape:window-x="0"
     inkscape:window-y="22"
     inkscape:window-maximized="1" />
  <metadata
     id="metadata5">
    <rdf:RDF>
      <cc:Work
         rdf:about="">
        <dc:format>image/svg+xml</dc:format>
        <dc:type
           rdf:resource="http://purl.org/dc/dcmitype/StillImage" />
        <dc:title></dc:title>
      </cc:Work>
    </rdf:RDF>
  </metadata>
  <g
     inkscape:label="Layer 1"
     inkscape:groupmode="layer"
     id="layer1"
     transform="translate(87.089559,-418.63153)">
    <path
       id="path1527"
       d="m -143.27895,233.28067 c -0.1382,-0.0214 -0.26721,0.0756 -0.28826,0.2166 l -0.001,0.009 c -0.0211,0.1411 0.0739,0.27281 0.21215,0.29431 0.0129,0.002 0.0257,0.003 0.0384,0.003 0.12297,0 0.23083,-0.0917 0.24991,-0.21953 l 10e-4,-0.009 c 0.0211,-0.1411 -0.0739,-0.27282 -0.21215,-0.29432 z m 0,0"
       inkscape:connector-curvature="0"
       style="stroke-width:0.02557143" />
    <path
       id="path1529"
       d="m -151.7681,228.79643 c 0.0597,0 0.11962,-0.0215 0.16786,-0.0652 l 0.005,-0.005 c 0.10449,-0.0947 0.11408,-0.25797 0.0213,-0.36476 -0.0928,-0.10668 -0.25277,-0.11647 -0.35726,-0.0217 l -0.005,0.005 c -0.10459,0.0947 -0.11418,0.25797 -0.0214,0.36476 0.05,0.0575 0.11952,0.0869 0.18941,0.0869 z m 0,0"
       inkscape:connector-curvature="0"
       style="stroke-width:0.02557143" />
    <g
       id="g2382"
       transform="matrix(0.03100597,0,0,0.03100703,-87.089564,418.61603)"
       style="fill:#333333">
      <path
         id="path2356"
         d="m 508.86719,395 -39.3711,-61.99609 c -2.875,-4.52735 -7.35156,-7.66407 -12.60156,-8.83985 -5.25391,-1.17187 -10.64062,-0.23437 -15.16797,2.64063 l -11.73437,7.45312 c -6.94922,4.41407 -10.26172,12.41407 -9.08203,20.07422 l -7.36329,3.96485 c -1.75781,0.94531 -3.39843,1.84375 -4.94921,2.71484 V 218.49609 c 0,-14.33593 -11.66407,-26 -26,-26 H 216 c -5.51953,0 -10,4.47657 -10,10 v 68 c 0,3.46485 1.79687,6.6836 4.74609,8.50782 2.94532,1.82031 6.62891,1.98437 9.72657,0.4375 L 236,271.67578 l 15.52734,7.76563 c 1.41016,0.70312 2.94141,1.05468 4.47266,1.05468 1.53125,0 3.06641,-0.35156 4.47266,-1.05468 L 276,271.67578 l 15.52734,7.76563 c 3.10157,1.54687 6.78125,1.38281 9.73047,-0.4375 C 304.20312,277.17969 306,273.96094 306,270.49609 v -58 h 76.59766 c 3.25,0 6,2.75 6,6 V 375.25 c -4.41407,4.61719 -7.9375,10.11328 -12.41407,18.21875 -1.97656,3.57813 -3.51562,6.53906 -4.7539,8.91406 -4.99219,9.60157 -4.99219,9.60157 -18.69141,16.97657 l -19.64062,10.57421 c -5.65625,3.04688 -9.79297,8.125 -11.64844,14.30469 -0.6875,2.30078 -1.02735,4.64453 -1.03125,6.97656 h -49.24219 c -5.69531,0 -10.95312,1.83594 -15.17187,4.92579 -4.22266,-3.08985 -9.48047,-4.92579 -15.17579,-4.92579 h -49.24218 c -0.004,-2.33203 -0.34375,-4.67578 -1.03125,-6.97656 -1.85547,-6.17969 -5.99219,-11.25781 -11.64844,-14.30469 l -19.64063,-10.57421 c -13.69921,-7.375 -13.69921,-7.375 -18.6914,-16.97657 -1.23828,-2.3789 -2.77735,-5.33593 -4.75391,-8.91406 -4.47656,-8.10937 -8,-13.60156 -12.41406,-18.22266 v -156.75 c 0,-3.25 2.75,-6 6,-6 h 17.63281 c 5.52344,0 10,-4.47656 10,-10 0,-5.52343 -4.47656,-10 -10,-10 h -17.63281 c -14.33594,0 -26,11.66407 -26,26 v 142.51172 c -1.55469,-0.86718 -3.19141,-1.76562 -4.949219,-2.71093 l -7.363281,-3.96485 c 1.179688,-7.66015 -2.132812,-15.66016 -9.085938,-20.07422 l -11.730468,-7.45312 c -4.527344,-2.875 -9.914063,-3.8125 -15.167969,-2.64063 -5.25,1.17188 -9.726563,4.3125 -12.605469,8.83985 L 3.132812,395 c -2.875,4.52734 -3.8125,9.91406 -2.640624,15.16797 1.171874,5.2539 4.3125,9.73047 8.839843,12.60547 l 11.730469,7.44922 c 3.257812,2.0664 6.957031,3.13281 10.730469,3.13281 1.476562,0 2.960937,-0.16406 4.4375,-0.49219 1.316406,-0.29297 2.585937,-0.71094 3.792969,-1.24609 l 35.832031,52.28515 c 0.238281,0.34766 0.5,0.67969 0.777343,0.99219 20.066407,22.56641 28.792968,27.58594 57.332028,27.58594 3.30469,0 6.88672,-0.0703 10.77735,-0.1836 0.29687,-0.0117 0.58984,-0.0312 0.88672,-0.0664 l 97.2539,-11.61328 c 4.98438,-0.59375 9.46094,-2.42969 13.11328,-5.16797 3.65625,2.73828 8.13282,4.57422 13.11719,5.16797 l 97.25391,11.61328 c 0.29297,0.0352 0.59375,0.0547 0.89062,0.0664 3.89063,0.11329 7.46485,0.1836 10.77344,0.1836 28.53516,0 37.26562,-5.01953 57.33203,-27.58594 0.27734,-0.3125 0.53906,-0.64453 0.77734,-0.99219 l 35.83594,-52.28906 c 2.57813,1.14063 5.37891,1.73828 8.20313,1.73828 3.6875,0 7.41797,-1.00781 10.7539,-3.1289 l 11.73047,-7.44922 c 4.52735,-2.875 7.66797,-7.35157 8.83985,-12.60547 1.17578,-5.25391 0.23828,-10.64063 -2.63672,-15.16797 z M 286,254.31641 l -5.52734,-2.76563 c -2.81641,-1.40625 -6.12891,-1.40625 -8.94532,0 L 256,259.31641 240.47266,251.55078 c -2.81641,-1.40625 -6.12891,-1.40625 -8.94532,0 L 226,254.31641 v -41.82032 h 60 z M 20.054688,405.89062 c -0.03906,-0.0234 -0.0625,-0.13281 -0.03906,-0.16796 l 39.371094,-61.9961 c 0.01953,-0.0312 0.06641,-0.0547 0.109375,-0.0547 0.01953,0 0.04297,0.004 0.05859,0.0156 l 11.730468,7.45312 c 0.03906,0.0234 0.0625,0.12891 0.03906,0.16407 l -39.371094,62 c -0.03125,0.0469 -0.121094,0.0664 -0.167969,0.0351 z m 220.460932,74.8711 -96.8125,11.55859 C 112.01953,493.24219 109.19531,491.39844 92,472.07812 l -38.242188,-55.80078 28.078126,-44.21484 7.136718,3.84375 c 8.699219,4.68359 13.894534,7.75 17.722654,11.04297 0.15235,0.13672 0.3086,0.27734 0.46875,0.40625 4.34375,3.87109 6.9336,8.15234 11.14844,15.78515 1.85547,3.35938 3.26953,6.07813 4.51563,8.47266 6.85156,13.17188 9.01953,15.69922 26.95312,25.35547 l 19.64453,10.57812 c 1.28516,0.69141 1.78516,1.82813 1.97266,2.44141 0.18359,0.61328 0.39062,1.83594 -0.30469,3.125 -0.37109,0.6875 -0.73828,1.27344 -1.10547,1.78125 -0.0859,0.10156 -0.16016,0.21094 -0.23828,0.32031 -2.73438,3.5586 -5.26953,2.59375 -6.72266,2.03125 -9.65625,-3.72265 -17.33593,-6.1289 -24.76172,-8.46093 -7.71484,-2.41797 -14.99999,-4.70313 -24.13281,-8.34375 -5.1289,-2.04297 -10.94922,0.45703 -12.99218,5.58984 -2.042974,5.12891 0.45703,10.94531 5.58984,12.99219 9.82812,3.91406 17.82031,6.42187 25.55078,8.84765 7.125,2.23438 14.49219,4.54297 23.55078,8.03907 3.25,1.2539 6.5,1.85937 9.65625,1.85937 6.09375,0 11.83203,-2.28125 16.55469,-6.55078 h 58.78515 c 1.4375,0 2.84375,0.53125 3.85157,1.46094 0.60156,0.55468 1.32031,1.49609 1.32031,2.83203 v 0.008 0.004 c -0.004,3.16406 -2.75781,4.91015 -5.48438,5.23828 z m 179.48829,-8.6836 c -17.19922,19.31641 -20.02344,21.16407 -51.70704,20.24219 l -96.8125,-11.55859 C 268.75781,480.43359 266.00391,478.6875 266,475.51953 v -0.004 c 0,-0.004 0,-0.004 0,-0.004 0.004,-2.57031 2.67969,-4.29688 5.17578,-4.29688 h 58.78516 c 4.72265,4.26954 10.45703,6.55469 16.55468,6.55469 3.15625,0 6.40625,-0.60937 9.65625,-1.86328 9.0586,-3.49219 16.42579,-5.80469 23.55079,-8.03906 7.73046,-2.42578 15.71875,-4.92969 25.55078,-8.84766 5.1289,-2.04297 7.63281,-7.85937 5.58593,-12.99219 -2.04296,-5.1289 -7.85937,-7.63281 -12.98828,-5.58593 -9.13281,3.63672 -16.41797,5.92187 -24.13281,8.34375 -7.42578,2.32812 -15.10547,4.73828 -24.76172,8.46093 -1.45312,0.5625 -3.98828,1.52344 -6.72656,-2.03906 -0.0781,-0.10156 -0.14844,-0.21094 -0.23047,-0.30859 -0.37109,-0.51172 -0.73828,-1.09766 -1.11328,-1.78906 -0.69141,-1.28516 -0.48438,-2.50782 -0.30078,-3.125 0.18359,-0.61329 0.6875,-1.75 1.97265,-2.44141 l 19.64454,-10.57422 c 17.93359,-9.65625 20.10156,-12.1875 26.94921,-25.35547 1.25,-2.39844 2.66016,-5.11328 4.51563,-8.47265 4.21875,-7.63672 6.80859,-11.91797 11.15234,-15.78907 0.15625,-0.125 0.30469,-0.25781 0.45313,-0.39453 3.82812,-3.29687 9.02734,-6.36328 17.73437,-11.05078 l 7.14063,-3.84375 28.07812,44.21094 z m 71.9414,-66.1875 -11.73047,7.44922 c -0.0391,0.0234 -0.14453,0 -0.16796,-0.0351 l -39.3711,-61.9961 c -0.0195,-0.0391 0,-0.14453 0.0391,-0.16796 l 11.73438,-7.45313 c 0.0156,-0.008 0.0351,-0.0117 0.0547,-0.0117 0.043,0 0.0898,0.0195 0.10937,0.0508 l 39.37109,61.9961 c 0.0312,0.0469 0.0117,0.13672 -0.0391,0.16796 z m 0,0"
         inkscape:connector-curvature="0"
         style="fill:#333333" />
      <path
         id="path2358"
         d="m 175.76562,212.49609 h 0.27344 c 5.51953,0 10,-4.47656 10,-10 0,-5.52343 -4.48047,-10 -10,-10 h -0.27344 c -5.51953,0 -9.99609,4.47657 -9.99609,10 0,5.52344 4.47656,10 9.99609,10 z m 0,0"
         inkscape:connector-curvature="0"
         style="fill:#333333" />
      <path
         id="path2360"
         d="m 249.96484,387.01953 c -5.51953,0 -9.99609,4.47656 -9.99609,10 0,5.52344 4.47656,10 9.99609,10 H 291 c 5.52344,0 10,-4.47656 10,-10 0,-5.52344 -4.47656,-10 -10,-10 z m 0,0"
         inkscape:connector-curvature="0"
         style="fill:#333333" />
      <path
         id="path2362"
         d="m 221,387.02344 c -5.52344,0 -10,4.47656 -10,9.99609 0,5.52344 4.47656,10 10,10 h 0.23828 c 5.51953,0 9.99609,-4.47656 9.99609,-10 0,-5.51953 -4.47656,-9.99609 -9.99609,-9.99609 z m 0,0"
         inkscape:connector-curvature="0"
         style="fill:#333333" />
      <path
         id="path2364"
         d="m 313.25,367.01953 c 0,-5.52344 -4.47656,-10 -10,-10 h -94.5 c -5.52344,0 -10,4.47656 -10,10 0,5.52344 4.47656,10 10,10 h 94.5 c 5.52344,0 10,-4.47656 10,-10 z m 0,0"
         inkscape:connector-curvature="0"
         style="fill:#333333" />
      <path
         id="path2366"
         d="m 202,100.5625 h 45.20312 l -3.69921,3.69531 c -10.13672,10.13672 -10.13672,26.63281 0,36.76953 4.89843,4.89844 11.42968,7.59766 18.38281,7.59766 6.96094,0 13.48828,-2.69922 18.38672,-7.59766 l 48.08203,-48.082028 c 4.92578,-4.925781 7.64062,-11.457031 7.64062,-18.382812 0,-6.929688 -2.71484,-13.457031 -7.64062,-18.386719 L 280.27344,8.09375 C 275.375,3.199219 268.84766,0.5 261.89062,0.5 c -6.95703,0 -13.48828,2.699219 -18.38671,7.59375 -10.13672,10.140625 -10.13672,26.632812 0,36.769531 l 3.69921,3.699219 h -45.19921 c -14.33594,0 -26,11.664062 -26,26 0,14.335938 11.66406,26 25.99609,26 z m 0,-32 h 69.34375 c 4.04297,0 7.69141,-2.4375 9.23828,-6.171875 1.55078,-3.738281 0.69141,-8.039063 -2.16406,-10.898437 L 257.64844,30.722656 c -1.1211,-1.121094 -1.73828,-2.628906 -1.73828,-4.242187 0,-1.617188 0.61718,-3.121094 1.73828,-4.242188 1.11719,-1.121093 2.625,-1.738281 4.23828,-1.738281 1.61719,0 3.125,0.617188 4.24219,1.738281 l 48.08593,48.082031 c 1.14844,1.148438 1.78125,2.65625 1.78125,4.242188 0,1.585938 -0.63281,3.089844 -1.78515,4.242188 l -48.07813,48.082032 c -1.12109,1.12109 -2.6289,1.73828 -4.24218,1.73828 -1.61719,0 -3.125,-0.61719 -4.24219,-1.73828 -2.30078,-2.30078 -2.30078,-6.1875 0,-8.48438 l 20.76953,-20.769528 c 2.85937,-2.859374 3.71484,-7.160156 2.16797,-10.898437 -1.55078,-3.738281 -5.19531,-6.171875 -9.24219,-6.171875 H 202 c -3.25,0 -5.99609,-2.75 -5.99609,-6 0,-3.253906 2.74609,-6 5.99609,-6 z m 0,0"
         inkscape:connector-curvature="0"
         style="fill:#333333" />
    </g>
  </g>
</svg>
