<?xml version="1.0" encoding="UTF-8" standalone="no"?>
<!-- Created with Inkscape (http://www.inkscape.org/) -->

<svg
   xmlns:dc="http://purl.org/dc/elements/1.1/"
   xmlns:cc="http://creativecommons.org/ns#"
   xmlns:rdf="http://www.w3.org/1999/02/22-rdf-syntax-ns#"
   xmlns:svg="http://www.w3.org/2000/svg"
   xmlns="http://www.w3.org/2000/svg"
   xmlns:sodipodi="http://sodipodi.sourceforge.net/DTD/sodipodi-0.dtd"
   xmlns:inkscape="http://www.inkscape.org/namespaces/inkscape"
   width="128.74507mm"
   height="126.90196mm"
   viewBox="0 0 128.74507 126.90196"
   version="1.1"
   id="svg8"
   inkscape:version="0.92.3 (2405546, 2018-03-11)"
   sodipodi:docname="rupiah-id.svg">
  <defs
     id="defs2" />
  <sodipodi:namedview
     id="base"
     pagecolor="#ffffff"
     bordercolor="#666666"
     borderopacity="1.0"
     inkscape:pageopacity="0.0"
     inkscape:pageshadow="2"
     inkscape:zoom="0.7"
     inkscape:cx="140.43867"
     inkscape:cy="261.43863"
     inkscape:document-units="mm"
     inkscape:current-layer="layer1"
     showgrid="false"
     showguides="true"
     inkscape:guide-bbox="true"
     inkscape:window-width="1366"
     inkscape:window-height="723"
     inkscape:window-x="0"
     inkscape:window-y="22"
     inkscape:window-maximized="1">
    <sodipodi:guide
       position="-4.5119463e-14,122.65327"
       orientation="1,0"
       id="guide826"
       inkscape:locked="false" />
    <sodipodi:guide
       position="54.428569,-1e-06"
       orientation="0,1"
       id="guide828"
       inkscape:locked="false" />
    <sodipodi:guide
       position="128.5119,121.51934"
       orientation="1,0"
       id="guide832"
       inkscape:locked="false" />
    <sodipodi:guide
       position="49.407379,126.90172"
       orientation="0,1"
       id="guide836"
       inkscape:locked="false" />
    <sodipodi:guide
       position="81.170389,126.90172"
       orientation="1,0"
       id="guide844"
       inkscape:locked="false" />
  </sodipodi:namedview>
  <metadata
     id="metadata5">
    <rdf:RDF>
      <cc:Work
         rdf:about="">
        <dc:format>image/svg+xml</dc:format>
        <dc:type
           rdf:resource="http://purl.org/dc/dcmitype/StillImage" />
        <dc:title />
      </cc:Work>
    </rdf:RDF>
  </metadata>
  <g
     inkscape:label="Layer 1"
     inkscape:groupmode="layer"
     id="layer1"
     transform="translate(-300.68006,-128.33167)">
    <path
       style="fill:#ffffff;stroke:none;stroke-width:0.26458332px;stroke-linecap:butt;stroke-linejoin:miter;stroke-opacity:1"
       d="m 300.68006,208.17559 v 47.05804 h 48.19196 l -48.19196,-48.19196 z"
       id="path838"
       inkscape:connector-curvature="0" />
    <path
       style="fill:#ffffff;stroke:none;stroke-width:0.26458332px;stroke-linecap:butt;stroke-linejoin:miter;stroke-opacity:1"
       d="m 427.52879,255.23363 h -45.86733 l -80.9814,-80.9814 v -45.92032 z"
       id="path842"
       inkscape:connector-curvature="0" />
    <path
       style="fill:#ffffff;stroke:none;stroke-width:0.26458332px;stroke-linecap:butt;stroke-linejoin:miter;stroke-opacity:1"
       d="m 300.90963,128.3319 33.07498,33.07498 39.45547,0.0889 c 0,0 0.26167,0.059 0.71882,0.19378 0.45715,0.13473 1.11016,0.34535 1.89342,0.64802 0.78327,0.30268 1.69643,0.69764 2.67478,1.20148 0.48917,0.25192 0.99454,0.53078 1.50792,0.83923 0.51337,0.30844 1.03478,0.64632 1.55597,1.01544 0.5212,0.36912 1.04231,0.7696 1.55495,1.20354 0.51263,0.43395 1.01712,0.90113 1.50481,1.40405 0.4877,0.50292 0.95871,1.04142 1.40509,1.61747 0.44637,0.57606 0.86809,1.18996 1.25677,1.8433 0.38868,0.65334 0.74424,1.34624 1.05885,2.08101 0.3146,0.73478 0.5882,1.51128 0.81235,2.33164 0.22415,0.82037 0.39894,1.68457 0.51625,2.59467 0.11731,0.91011 0.17695,1.86612 0.17105,2.87011 0,0 0.002,0.27019 -0.0284,0.74673 -0.0304,0.47654 -0.0931,1.15954 -0.22117,1.98541 -0.12812,0.82587 -0.32168,1.79472 -0.61495,2.84272 -0.14663,0.524 -0.31828,1.06748 -0.51883,1.62316 -0.20056,0.55568 -0.43008,1.12352 -0.69298,1.69498 -0.2629,0.57146 -0.5593,1.1469 -0.89297,1.71824 -0.33367,0.57134 -0.7049,1.13864 -1.11776,1.69396 -0.41286,0.55532 -0.8674,1.0982 -1.36788,1.6216 -0.50047,0.5234 -1.04679,1.02718 -1.64331,1.50275 -0.59651,0.47558 -1.24309,0.92295 -1.94406,1.33481 -0.70098,0.41185 -1.45629,0.78811 -2.27015,1.12034 -0.81386,0.33223 -1.68638,0.6206 -2.62155,0.85731 -0.91743,0.23222 -1.89868,0.4118 -2.9409,0.53692 l 28.07322,28.07322 c 32.60688,-17.10525 27.92233,-51.85006 27.92233,-51.85006 -6.2881,-44.63401 -47.3413,-48.5097 -47.3413,-48.5097 z"
       id="path854"
       inkscape:connector-curvature="0" />
    <path
       style="opacity:0.3;fill:#ffb817;stroke:none;stroke-width:0.99999994px;stroke-linecap:butt;stroke-linejoin:miter;stroke-opacity:1;fill-opacity:1"
       d="M 477.29688,299.65625 602.30469,424.66406 751.42773,425 c 0,0 0.98899,0.22302 2.7168,0.73242 1.72781,0.50922 4.1959,1.30527 7.15625,2.44922 2.96039,1.14399 6.41168,2.63674 10.10938,4.54102 1.84883,0.95213 3.75888,2.00608 5.69922,3.17187 1.94029,1.16576 3.911,2.44279 5.88085,3.83789 1.96989,1.3951 3.93942,2.90874 5.87696,4.54883 1.9375,1.64013 3.84426,3.40584 5.6875,5.30664 1.84327,1.9008 3.62344,3.93609 5.31054,6.11328 1.68707,2.17724 3.28098,4.49748 4.75,6.9668 1.46903,2.46932 2.81288,5.08815 4.00196,7.86523 1.18904,2.77712 2.22313,5.71193 3.07031,8.8125 0.84718,3.10061 1.5078,6.3669 1.95117,9.80664 0.44338,3.43979 0.66879,7.05305 0.64649,10.84766 0,0 0.007,1.02117 -0.10743,2.82227 -0.11489,1.80109 -0.35189,4.3825 -0.83593,7.5039 -0.48424,3.1214 -1.2158,6.7832 -2.32422,10.74414 -0.55419,1.98047 -1.20296,4.03456 -1.96094,6.13477 -0.75802,2.10021 -1.6255,4.2464 -2.61914,6.40625 -0.99364,2.15985 -2.11389,4.33474 -3.375,6.49414 -1.26111,2.15939 -2.66419,4.3035 -4.22461,6.40234 -1.56042,2.09885 -3.27834,4.1507 -5.16992,6.12891 -1.89154,1.9782 -3.95637,3.88226 -6.21094,5.67969 -2.25452,1.79746 -4.69832,3.48828 -7.34765,5.04492 -2.64938,1.5566 -5.50408,2.9787 -8.58008,4.23437 -3.07601,1.25568 -6.37371,2.34559 -9.90821,3.24024 -3.46745,0.87768 -7.17613,1.5564 -11.11523,2.02929 l 106.10352,106.10352 c 44.45759,-23.32202 70.56738,-55.31977 85.78906,-86.69922 L 649.78516,299.65625 Z"
       id="path903"
       inkscape:connector-curvature="0"
       transform="matrix(0.26458333,0,0,0.26458333,174.625,49.047619)" />
  </g>
</svg>
