<?xml version="1.0" encoding="UTF-8" standalone="no"?>
<!-- Created with Inkscape (http://www.inkscape.org/) -->

<svg
   xmlns:dc="http://purl.org/dc/elements/1.1/"
   xmlns:cc="http://creativecommons.org/ns#"
   xmlns:rdf="http://www.w3.org/1999/02/22-rdf-syntax-ns#"
   xmlns:svg="http://www.w3.org/2000/svg"
   xmlns="http://www.w3.org/2000/svg"
   xmlns:sodipodi="http://sodipodi.sourceforge.net/DTD/sodipodi-0.dtd"
   xmlns:inkscape="http://www.inkscape.org/namespaces/inkscape"
   width="13.229169mm"
   height="12.699999mm"
   viewBox="0 0 13.229169 12.699999"
   version="1.1"
   id="svg8"
   inkscape:version="0.92.3 (2405546, 2018-03-11)"
   sodipodi:docname="stok-barang.svg">
  <defs
     id="defs2" />
  <sodipodi:namedview
     id="base"
     pagecolor="#ffffff"
     bordercolor="#666666"
     borderopacity="1.0"
     inkscape:pageopacity="0.0"
     inkscape:pageshadow="2"
     inkscape:zoom="2.8"
     inkscape:cx="34.498446"
     inkscape:cy="17.526783"
     inkscape:document-units="mm"
     inkscape:current-layer="layer1"
     showgrid="false"
     inkscape:window-width="1366"
     inkscape:window-height="723"
     inkscape:window-x="0"
     inkscape:window-y="22"
     inkscape:window-maximized="1" />
  <metadata
     id="metadata5">
    <rdf:RDF>
      <cc:Work
         rdf:about="">
        <dc:format>image/svg+xml</dc:format>
        <dc:type
           rdf:resource="http://purl.org/dc/dcmitype/StillImage" />
        <dc:title></dc:title>
      </cc:Work>
    </rdf:RDF>
  </metadata>
  <g
     inkscape:label="Layer 1"
     inkscape:groupmode="layer"
     id="layer1"
     transform="translate(-66.601668,-121.41511)">
    <path
       inkscape:connector-curvature="0"
       d="m -190.29034,330.58404 h -1.06028 c -0.14261,0 -0.25838,0.10815 -0.25838,0.24158 0,0.13343 0.11577,0.24158 0.25838,0.24158 h 1.06028 c 0.14271,0 0.25838,-0.10815 0.25838,-0.24158 0,-0.13343 -0.11567,-0.24158 -0.25838,-0.24158 z m 0,0"
       id="path1461"
       style="stroke-width:0.02498379" />
    <path
       inkscape:connector-curvature="0"
       d="m -192.09296,330.58414 h -0.006 c -0.14272,0 -0.25839,0.10814 -0.25839,0.24157 0,0.13344 0.11567,0.24158 0.25839,0.24158 h 0.006 c 0.14271,0 0.25838,-0.10814 0.25838,-0.24158 0,-0.13343 -0.11567,-0.24157 -0.25838,-0.24157 z m 0,0"
       id="path1463"
       style="stroke-width:0.02498379" />
    <path
       inkscape:connector-curvature="0"
       d="m -198.71734,323.86832 h 0.007 c 0.14272,0 0.25838,-0.10814 0.25838,-0.24157 0,-0.13344 -0.11566,-0.24158 -0.25838,-0.24158 h -0.007 c -0.14271,0 -0.25838,0.10814 -0.25838,0.24158 0,0.13343 0.11567,0.24157 0.25838,0.24157 z m 0,0"
       id="path1467"
       style="stroke-width:0.02498379" />
    <path
       id="path1527"
       d="m -143.27895,233.28067 c -0.1382,-0.0214 -0.26721,0.0756 -0.28826,0.2166 l -0.001,0.009 c -0.0211,0.1411 0.0739,0.27281 0.21215,0.29431 0.0129,0.002 0.0257,0.003 0.0384,0.003 0.12297,0 0.23083,-0.0917 0.24991,-0.21953 l 10e-4,-0.009 c 0.0211,-0.1411 -0.0739,-0.27282 -0.21215,-0.29432 z m 0,0"
       inkscape:connector-curvature="0"
       style="stroke-width:0.02557143" />
    <path
       id="path1529"
       d="m -151.7681,228.79643 c 0.0597,0 0.11962,-0.0215 0.16786,-0.0652 l 0.005,-0.005 c 0.10449,-0.0947 0.11408,-0.25797 0.0213,-0.36476 -0.0928,-0.10668 -0.25277,-0.11647 -0.35726,-0.0217 l -0.005,0.005 c -0.10459,0.0947 -0.11418,0.25797 -0.0214,0.36476 0.05,0.0575 0.11952,0.0869 0.18941,0.0869 z m 0,0"
       inkscape:connector-curvature="0"
       style="stroke-width:0.02557143" />
    <path
       inkscape:connector-curvature="0"
       d="m 46.232622,224.1438 h -1.060275 c -0.142615,0 -0.258382,0.10815 -0.258382,0.24158 0,0.13343 0.115767,0.24158 0.258382,0.24158 h 1.060275 c 0.142716,0 0.258382,-0.10815 0.258382,-0.24158 0,-0.13343 -0.115666,-0.24158 -0.258382,-0.24158 z m 0,0"
       id="path1461-2"
       style="stroke-width:0.02498379" />
    <path
       inkscape:connector-curvature="0"
       d="m 44.430003,224.1439 h -0.0061 c -0.142716,0 -0.258382,0.10814 -0.258382,0.24157 0,0.13344 0.115666,0.24158 0.258382,0.24158 h 0.0061 c 0.142716,0 0.258382,-0.10814 0.258382,-0.24158 0,-0.13343 -0.115666,-0.24157 -0.258382,-0.24157 z m 0,0"
       id="path1463-7"
       style="stroke-width:0.02498379" />
    <path
       inkscape:connector-curvature="0"
       d="m 37.805628,217.42808 h 0.007 c 0.142716,0 0.258383,-0.10814 0.258383,-0.24157 0,-0.13344 -0.115667,-0.24158 -0.258383,-0.24158 h -0.007 c -0.142716,0 -0.258382,0.10814 -0.258382,0.24158 0,0.13343 0.115666,0.24157 0.258382,0.24157 z m 0,0"
       id="path1467-0"
       style="stroke-width:0.02498379" />
    <g
       style="opacity:1;fill:#333333"
       transform="matrix(0.02583822,0,0,0.0264586,66.601668,121.41508)"
       id="g1929">
      <path
         inkscape:connector-curvature="0"
         d="m 87.769531,117.13281 c 1.699219,0 3.417969,-0.42968 4.992188,-1.33984 l 0.234375,-0.13281 c 4.78125,-2.76172 6.417968,-8.87891 3.660156,-13.66407 -2.761719,-4.781246 -8.878906,-6.417965 -13.664062,-3.656246 l -0.230469,0.132812 c -4.785157,2.761724 -6.421875,8.878904 -3.660157,13.660154 1.851563,3.20703 5.214844,5 8.667969,5 z m 0,0"
         id="path1923"
         style="fill:#333333" />
      <path
         inkscape:connector-curvature="0"
         d="m 486,427.99609 h -40 v -256.7539 l 25,14.43359 c 1.54687,0.89453 3.27344,1.33985 5,1.33985 1.72656,0 3.45312,-0.44532 5,-1.33985 3.09375,-1.78515 5,-5.08594 5,-8.66015 v -40 c 0,-3.57032 -1.90625,-6.8711 -5,-8.66016 L 261.00391,1.339844 c -3.09766,-1.785156 -6.90625,-1.785156 -10,0 L 117.60547,78.355469 c -4.78125,2.761719 -6.42188,8.878906 -3.66016,13.660156 2.76172,4.785156 8.87891,6.421875 13.66016,3.660156 L 256.00391,21.546875 466,142.78906 v 16.90625 L 261.00391,41.339844 c -3.09766,-1.785156 -6.90625,-1.785156 -10,0 L 46.003906,159.69531 v -16.90625 l 21.878906,-12.6289 c 4.78125,-2.76172 6.421876,-8.87891 3.660157,-13.66016 -2.761719,-4.78516 -8.878907,-6.42187 -13.660157,-3.66016 l -26.878906,15.51563 c -3.09375,1.78906 -5,5.08984 -5,8.66016 v 40 c 0,3.57421 1.90625,6.875 5,8.66015 3.09375,1.78906 6.90625,1.78906 10,0 l 25,-14.43359 v 256.7539 H 26 c -14.335938,0 -26,11.66407 -26,26 v 16 c 0,5.52344 4.476562,10 10,10 h 385.16406 c 5.51953,0 10,-4.47656 10,-10 0,-5.52343 -4.48047,-10 -10,-10 H 20 v -6 c 0,-3.25 2.746094,-6 6,-6 h 460 c 3.25391,0 6,2.75 6,6 v 6 h -27.875 c -5.51953,0 -10,4.47657 -10,10 0,5.52344 4.48047,10 10,10 H 502 c 5.52344,0 10,-4.47656 10,-10 v -16 c 0,-14.33593 -11.66406,-26 -26,-26 z M 406,200 h 20 v 227.99609 h -20 z m 20,-20 H 326 v -78.03906 l 100,57.73437 z M 256.00391,61.546875 l 50,28.867187 V 180 h -100 V 90.417969 Z m -70,40.414065 V 180 H 86.003906 V 159.69531 Z M 86.003906,200 H 106.00391 V 427.99609 H 86.003906 Z m 40.000004,0 H 386 V 427.99609 H 374 V 222 c 0,-5.52344 -4.47656,-10 -10,-10 h -72 c -5.51953,0 -10,4.47656 -10,10 v 61.99609 h -61.99609 c -5.52344,0 -10,4.48047 -10,10 v 62 h -62 c -5.52344,0 -10,4.47657 -10,10 v 62 h -12 z M 302,355.99609 V 304 h 16 c 0,5.52344 4.48047,10 10,10 5.52344,0 10,-4.47656 10,-10 h 16 v 51.99609 z m -71.99609,0 V 304 h 16 c 0,5.52344 4.47656,10 10,10 C 261.52344,314 266,309.52344 266,304 h 16 v 51.99609 z m 98,-113.99609 c 5.51953,0 10,-4.48047 10,-10 H 354 v 51.99609 H 302 V 232 h 16.00391 c 0,5.51953 4.47656,10 10,10 z m -170,133.99609 h 16 c 0,5.52344 4.47656,10 10,10 5.52343,0 10,-4.47656 10,-10 h 16 v 52 h -52 z m 72,0 h 16 c 0,5.52344 4.47656,10 10,10 5.51953,0 9.99609,-4.47656 9.99609,-10 h 16 v 52 h -51.99609 z m 71.99609,52 v -52 h 16 c 0,5.52344 4.48047,10 10,10 5.52344,0 10,-4.47656 10,-10 h 16 v 52 z m 0,0"
         id="path1925"
         style="fill:#333333" />
      <path
         inkscape:connector-curvature="0"
         d="M 435.39453,459.99609 H 435.125 c -5.51953,0 -9.99609,4.47657 -9.99609,10 0,5.52344 4.47656,10 9.99609,10 h 0.26953 c 5.52344,0 10,-4.47656 10,-10 0,-5.52343 -4.47656,-10 -10,-10 z m 0,0"
         id="path1927"
         style="fill:#333333" />
    </g>
  </g>
</svg>
